<?xml version="1.0" encoding="utf-8" standalone="no"?>
<!DOCTYPE svg PUBLIC "-//W3C//DTD SVG 1.1//EN"
  "http://www.w3.org/Graphics/SVG/1.1/DTD/svg11.dtd">
<!-- Created with matplotlib (https://matplotlib.org/) -->
<svg height="648pt" version="1.1" viewBox="0 0 864 648" width="864pt" xmlns="http://www.w3.org/2000/svg" xmlns:xlink="http://www.w3.org/1999/xlink">
 <defs>
  <style type="text/css">
*{stroke-linecap:butt;stroke-linejoin:round;}
  </style>
 </defs>
 <g id="figure_1">
  <g id="patch_1">
   <path d="M 0 648 
L 864 648 
L 864 0 
L 0 0 
z
" style="fill:#ffffff;"/>
  </g>
  <g id="axes_1">
   <g id="patch_2">
    <path d="M 108 567 
L 777.6 567 
L 777.6 77.76 
L 108 77.76 
z
" style="fill:#ffffff;"/>
   </g>
   <g id="matplotlib.axis_1">
    <g id="xtick_1">
     <g id="line2d_1">
      <defs>
       <path d="M 0 0 
L 0 3.5 
" id="m0a28dc64f5" style="stroke:#000000;stroke-width:0.8;"/>
      </defs>
      <g>
       <use style="stroke:#000000;stroke-width:0.8;" x="132.8" xlink:href="#m0a28dc64f5" y="567"/>
      </g>
     </g>
     <g id="text_1">
      <!-- 2 -->
      <defs>
       <path d="M 19.1875 8.296875 
L 53.609375 8.296875 
L 53.609375 0 
L 7.328125 0 
L 7.328125 8.296875 
Q 12.9375 14.109375 22.625 23.890625 
Q 32.328125 33.6875 34.8125 36.53125 
Q 39.546875 41.84375 41.421875 45.53125 
Q 43.3125 49.21875 43.3125 52.78125 
Q 43.3125 58.59375 39.234375 62.25 
Q 35.15625 65.921875 28.609375 65.921875 
Q 23.96875 65.921875 18.8125 64.3125 
Q 13.671875 62.703125 7.8125 59.421875 
L 7.8125 69.390625 
Q 13.765625 71.78125 18.9375 73 
Q 24.125 74.21875 28.421875 74.21875 
Q 39.75 74.21875 46.484375 68.546875 
Q 53.21875 62.890625 53.21875 53.421875 
Q 53.21875 48.921875 51.53125 44.890625 
Q 49.859375 40.875 45.40625 35.40625 
Q 44.1875 33.984375 37.640625 27.21875 
Q 31.109375 20.453125 19.1875 8.296875 
z
" id="DejaVuSans-50"/>
      </defs>
      <g transform="translate(126.4375 589.196875)scale(0.2 -0.2)">
       <use xlink:href="#DejaVuSans-50"/>
      </g>
     </g>
    </g>
    <g id="xtick_2">
     <g id="line2d_2">
      <g>
       <use style="stroke:#000000;stroke-width:0.8;" x="232" xlink:href="#m0a28dc64f5" y="567"/>
      </g>
     </g>
     <g id="text_2">
      <!-- 4 -->
      <defs>
       <path d="M 37.796875 64.3125 
L 12.890625 25.390625 
L 37.796875 25.390625 
z
M 35.203125 72.90625 
L 47.609375 72.90625 
L 47.609375 25.390625 
L 58.015625 25.390625 
L 58.015625 17.1875 
L 47.609375 17.1875 
L 47.609375 0 
L 37.796875 0 
L 37.796875 17.1875 
L 4.890625 17.1875 
L 4.890625 26.703125 
z
" id="DejaVuSans-52"/>
      </defs>
      <g transform="translate(225.6375 589.196875)scale(0.2 -0.2)">
       <use xlink:href="#DejaVuSans-52"/>
      </g>
     </g>
    </g>
    <g id="xtick_3">
     <g id="line2d_3">
      <g>
       <use style="stroke:#000000;stroke-width:0.8;" x="331.2" xlink:href="#m0a28dc64f5" y="567"/>
      </g>
     </g>
     <g id="text_3">
      <!-- 6 -->
      <defs>
       <path d="M 33.015625 40.375 
Q 26.375 40.375 22.484375 35.828125 
Q 18.609375 31.296875 18.609375 23.390625 
Q 18.609375 15.53125 22.484375 10.953125 
Q 26.375 6.390625 33.015625 6.390625 
Q 39.65625 6.390625 43.53125 10.953125 
Q 47.40625 15.53125 47.40625 23.390625 
Q 47.40625 31.296875 43.53125 35.828125 
Q 39.65625 40.375 33.015625 40.375 
z
M 52.59375 71.296875 
L 52.59375 62.3125 
Q 48.875 64.0625 45.09375 64.984375 
Q 41.3125 65.921875 37.59375 65.921875 
Q 27.828125 65.921875 22.671875 59.328125 
Q 17.53125 52.734375 16.796875 39.40625 
Q 19.671875 43.65625 24.015625 45.921875 
Q 28.375 48.1875 33.59375 48.1875 
Q 44.578125 48.1875 50.953125 41.515625 
Q 57.328125 34.859375 57.328125 23.390625 
Q 57.328125 12.15625 50.6875 5.359375 
Q 44.046875 -1.421875 33.015625 -1.421875 
Q 20.359375 -1.421875 13.671875 8.265625 
Q 6.984375 17.96875 6.984375 36.375 
Q 6.984375 53.65625 15.1875 63.9375 
Q 23.390625 74.21875 37.203125 74.21875 
Q 40.921875 74.21875 44.703125 73.484375 
Q 48.484375 72.75 52.59375 71.296875 
z
" id="DejaVuSans-54"/>
      </defs>
      <g transform="translate(324.8375 589.196875)scale(0.2 -0.2)">
       <use xlink:href="#DejaVuSans-54"/>
      </g>
     </g>
    </g>
    <g id="xtick_4">
     <g id="line2d_4">
      <g>
       <use style="stroke:#000000;stroke-width:0.8;" x="430.4" xlink:href="#m0a28dc64f5" y="567"/>
      </g>
     </g>
     <g id="text_4">
      <!-- 8 -->
      <defs>
       <path d="M 31.78125 34.625 
Q 24.75 34.625 20.71875 30.859375 
Q 16.703125 27.09375 16.703125 20.515625 
Q 16.703125 13.921875 20.71875 10.15625 
Q 24.75 6.390625 31.78125 6.390625 
Q 38.8125 6.390625 42.859375 10.171875 
Q 46.921875 13.96875 46.921875 20.515625 
Q 46.921875 27.09375 42.890625 30.859375 
Q 38.875 34.625 31.78125 34.625 
z
M 21.921875 38.8125 
Q 15.578125 40.375 12.03125 44.71875 
Q 8.5 49.078125 8.5 55.328125 
Q 8.5 64.0625 14.71875 69.140625 
Q 20.953125 74.21875 31.78125 74.21875 
Q 42.671875 74.21875 48.875 69.140625 
Q 55.078125 64.0625 55.078125 55.328125 
Q 55.078125 49.078125 51.53125 44.71875 
Q 48 40.375 41.703125 38.8125 
Q 48.828125 37.15625 52.796875 32.3125 
Q 56.78125 27.484375 56.78125 20.515625 
Q 56.78125 9.90625 50.3125 4.234375 
Q 43.84375 -1.421875 31.78125 -1.421875 
Q 19.734375 -1.421875 13.25 4.234375 
Q 6.78125 9.90625 6.78125 20.515625 
Q 6.78125 27.484375 10.78125 32.3125 
Q 14.796875 37.15625 21.921875 38.8125 
z
M 18.3125 54.390625 
Q 18.3125 48.734375 21.84375 45.5625 
Q 25.390625 42.390625 31.78125 42.390625 
Q 38.140625 42.390625 41.71875 45.5625 
Q 45.3125 48.734375 45.3125 54.390625 
Q 45.3125 60.0625 41.71875 63.234375 
Q 38.140625 66.40625 31.78125 66.40625 
Q 25.390625 66.40625 21.84375 63.234375 
Q 18.3125 60.0625 18.3125 54.390625 
z
" id="DejaVuSans-56"/>
      </defs>
      <g transform="translate(424.0375 589.196875)scale(0.2 -0.2)">
       <use xlink:href="#DejaVuSans-56"/>
      </g>
     </g>
    </g>
    <g id="xtick_5">
     <g id="line2d_5">
      <g>
       <use style="stroke:#000000;stroke-width:0.8;" x="529.6" xlink:href="#m0a28dc64f5" y="567"/>
      </g>
     </g>
     <g id="text_5">
      <!-- 10 -->
      <defs>
       <path d="M 12.40625 8.296875 
L 28.515625 8.296875 
L 28.515625 63.921875 
L 10.984375 60.40625 
L 10.984375 69.390625 
L 28.421875 72.90625 
L 38.28125 72.90625 
L 38.28125 8.296875 
L 54.390625 8.296875 
L 54.390625 0 
L 12.40625 0 
z
" id="DejaVuSans-49"/>
       <path d="M 31.78125 66.40625 
Q 24.171875 66.40625 20.328125 58.90625 
Q 16.5 51.421875 16.5 36.375 
Q 16.5 21.390625 20.328125 13.890625 
Q 24.171875 6.390625 31.78125 6.390625 
Q 39.453125 6.390625 43.28125 13.890625 
Q 47.125 21.390625 47.125 36.375 
Q 47.125 51.421875 43.28125 58.90625 
Q 39.453125 66.40625 31.78125 66.40625 
z
M 31.78125 74.21875 
Q 44.046875 74.21875 50.515625 64.515625 
Q 56.984375 54.828125 56.984375 36.375 
Q 56.984375 17.96875 50.515625 8.265625 
Q 44.046875 -1.421875 31.78125 -1.421875 
Q 19.53125 -1.421875 13.0625 8.265625 
Q 6.59375 17.96875 6.59375 36.375 
Q 6.59375 54.828125 13.0625 64.515625 
Q 19.53125 74.21875 31.78125 74.21875 
z
" id="DejaVuSans-48"/>
      </defs>
      <g transform="translate(516.875 589.196875)scale(0.2 -0.2)">
       <use xlink:href="#DejaVuSans-49"/>
       <use x="63.623047" xlink:href="#DejaVuSans-48"/>
      </g>
     </g>
    </g>
    <g id="xtick_6">
     <g id="line2d_6">
      <g>
       <use style="stroke:#000000;stroke-width:0.8;" x="628.8" xlink:href="#m0a28dc64f5" y="567"/>
      </g>
     </g>
     <g id="text_6">
      <!-- 12 -->
      <g transform="translate(616.075 589.196875)scale(0.2 -0.2)">
       <use xlink:href="#DejaVuSans-49"/>
       <use x="63.623047" xlink:href="#DejaVuSans-50"/>
      </g>
     </g>
    </g>
    <g id="xtick_7">
     <g id="line2d_7">
      <g>
       <use style="stroke:#000000;stroke-width:0.8;" x="728" xlink:href="#m0a28dc64f5" y="567"/>
      </g>
     </g>
     <g id="text_7">
      <!-- 14 -->
      <g transform="translate(715.275 589.196875)scale(0.2 -0.2)">
       <use xlink:href="#DejaVuSans-49"/>
       <use x="63.623047" xlink:href="#DejaVuSans-52"/>
      </g>
     </g>
    </g>
    <g id="text_8">
     <!-- Interparticle distance, r [$a_0$] -->
     <defs>
      <path d="M 9.8125 72.90625 
L 19.671875 72.90625 
L 19.671875 0 
L 9.8125 0 
z
" id="DejaVuSans-73"/>
      <path d="M 54.890625 33.015625 
L 54.890625 0 
L 45.90625 0 
L 45.90625 32.71875 
Q 45.90625 40.484375 42.875 44.328125 
Q 39.84375 48.1875 33.796875 48.1875 
Q 26.515625 48.1875 22.3125 43.546875 
Q 18.109375 38.921875 18.109375 30.90625 
L 18.109375 0 
L 9.078125 0 
L 9.078125 54.6875 
L 18.109375 54.6875 
L 18.109375 46.1875 
Q 21.34375 51.125 25.703125 53.5625 
Q 30.078125 56 35.796875 56 
Q 45.21875 56 50.046875 50.171875 
Q 54.890625 44.34375 54.890625 33.015625 
z
" id="DejaVuSans-110"/>
      <path d="M 18.3125 70.21875 
L 18.3125 54.6875 
L 36.8125 54.6875 
L 36.8125 47.703125 
L 18.3125 47.703125 
L 18.3125 18.015625 
Q 18.3125 11.328125 20.140625 9.421875 
Q 21.96875 7.515625 27.59375 7.515625 
L 36.8125 7.515625 
L 36.8125 0 
L 27.59375 0 
Q 17.1875 0 13.234375 3.875 
Q 9.28125 7.765625 9.28125 18.015625 
L 9.28125 47.703125 
L 2.6875 47.703125 
L 2.6875 54.6875 
L 9.28125 54.6875 
L 9.28125 70.21875 
z
" id="DejaVuSans-116"/>
      <path d="M 56.203125 29.59375 
L 56.203125 25.203125 
L 14.890625 25.203125 
Q 15.484375 15.921875 20.484375 11.0625 
Q 25.484375 6.203125 34.421875 6.203125 
Q 39.59375 6.203125 44.453125 7.46875 
Q 49.3125 8.734375 54.109375 11.28125 
L 54.109375 2.78125 
Q 49.265625 0.734375 44.1875 -0.34375 
Q 39.109375 -1.421875 33.890625 -1.421875 
Q 20.796875 -1.421875 13.15625 6.1875 
Q 5.515625 13.8125 5.515625 26.8125 
Q 5.515625 40.234375 12.765625 48.109375 
Q 20.015625 56 32.328125 56 
Q 43.359375 56 49.78125 48.890625 
Q 56.203125 41.796875 56.203125 29.59375 
z
M 47.21875 32.234375 
Q 47.125 39.59375 43.09375 43.984375 
Q 39.0625 48.390625 32.421875 48.390625 
Q 24.90625 48.390625 20.390625 44.140625 
Q 15.875 39.890625 15.1875 32.171875 
z
" id="DejaVuSans-101"/>
      <path d="M 41.109375 46.296875 
Q 39.59375 47.171875 37.8125 47.578125 
Q 36.03125 48 33.890625 48 
Q 26.265625 48 22.1875 43.046875 
Q 18.109375 38.09375 18.109375 28.8125 
L 18.109375 0 
L 9.078125 0 
L 9.078125 54.6875 
L 18.109375 54.6875 
L 18.109375 46.1875 
Q 20.953125 51.171875 25.484375 53.578125 
Q 30.03125 56 36.53125 56 
Q 37.453125 56 38.578125 55.875 
Q 39.703125 55.765625 41.0625 55.515625 
z
" id="DejaVuSans-114"/>
      <path d="M 18.109375 8.203125 
L 18.109375 -20.796875 
L 9.078125 -20.796875 
L 9.078125 54.6875 
L 18.109375 54.6875 
L 18.109375 46.390625 
Q 20.953125 51.265625 25.265625 53.625 
Q 29.59375 56 35.59375 56 
Q 45.5625 56 51.78125 48.09375 
Q 58.015625 40.1875 58.015625 27.296875 
Q 58.015625 14.40625 51.78125 6.484375 
Q 45.5625 -1.421875 35.59375 -1.421875 
Q 29.59375 -1.421875 25.265625 0.953125 
Q 20.953125 3.328125 18.109375 8.203125 
z
M 48.6875 27.296875 
Q 48.6875 37.203125 44.609375 42.84375 
Q 40.53125 48.484375 33.40625 48.484375 
Q 26.265625 48.484375 22.1875 42.84375 
Q 18.109375 37.203125 18.109375 27.296875 
Q 18.109375 17.390625 22.1875 11.75 
Q 26.265625 6.109375 33.40625 6.109375 
Q 40.53125 6.109375 44.609375 11.75 
Q 48.6875 17.390625 48.6875 27.296875 
z
" id="DejaVuSans-112"/>
      <path d="M 34.28125 27.484375 
Q 23.390625 27.484375 19.1875 25 
Q 14.984375 22.515625 14.984375 16.5 
Q 14.984375 11.71875 18.140625 8.90625 
Q 21.296875 6.109375 26.703125 6.109375 
Q 34.1875 6.109375 38.703125 11.40625 
Q 43.21875 16.703125 43.21875 25.484375 
L 43.21875 27.484375 
z
M 52.203125 31.203125 
L 52.203125 0 
L 43.21875 0 
L 43.21875 8.296875 
Q 40.140625 3.328125 35.546875 0.953125 
Q 30.953125 -1.421875 24.3125 -1.421875 
Q 15.921875 -1.421875 10.953125 3.296875 
Q 6 8.015625 6 15.921875 
Q 6 25.140625 12.171875 29.828125 
Q 18.359375 34.515625 30.609375 34.515625 
L 43.21875 34.515625 
L 43.21875 35.40625 
Q 43.21875 41.609375 39.140625 45 
Q 35.0625 48.390625 27.6875 48.390625 
Q 23 48.390625 18.546875 47.265625 
Q 14.109375 46.140625 10.015625 43.890625 
L 10.015625 52.203125 
Q 14.9375 54.109375 19.578125 55.046875 
Q 24.21875 56 28.609375 56 
Q 40.484375 56 46.34375 49.84375 
Q 52.203125 43.703125 52.203125 31.203125 
z
" id="DejaVuSans-97"/>
      <path d="M 9.421875 54.6875 
L 18.40625 54.6875 
L 18.40625 0 
L 9.421875 0 
z
M 9.421875 75.984375 
L 18.40625 75.984375 
L 18.40625 64.59375 
L 9.421875 64.59375 
z
" id="DejaVuSans-105"/>
      <path d="M 48.78125 52.59375 
L 48.78125 44.1875 
Q 44.96875 46.296875 41.140625 47.34375 
Q 37.3125 48.390625 33.40625 48.390625 
Q 24.65625 48.390625 19.8125 42.84375 
Q 14.984375 37.3125 14.984375 27.296875 
Q 14.984375 17.28125 19.8125 11.734375 
Q 24.65625 6.203125 33.40625 6.203125 
Q 37.3125 6.203125 41.140625 7.25 
Q 44.96875 8.296875 48.78125 10.40625 
L 48.78125 2.09375 
Q 45.015625 0.34375 40.984375 -0.53125 
Q 36.96875 -1.421875 32.421875 -1.421875 
Q 20.0625 -1.421875 12.78125 6.34375 
Q 5.515625 14.109375 5.515625 27.296875 
Q 5.515625 40.671875 12.859375 48.328125 
Q 20.21875 56 33.015625 56 
Q 37.15625 56 41.109375 55.140625 
Q 45.0625 54.296875 48.78125 52.59375 
z
" id="DejaVuSans-99"/>
      <path d="M 9.421875 75.984375 
L 18.40625 75.984375 
L 18.40625 0 
L 9.421875 0 
z
" id="DejaVuSans-108"/>
      <path id="DejaVuSans-32"/>
      <path d="M 45.40625 46.390625 
L 45.40625 75.984375 
L 54.390625 75.984375 
L 54.390625 0 
L 45.40625 0 
L 45.40625 8.203125 
Q 42.578125 3.328125 38.25 0.953125 
Q 33.9375 -1.421875 27.875 -1.421875 
Q 17.96875 -1.421875 11.734375 6.484375 
Q 5.515625 14.40625 5.515625 27.296875 
Q 5.515625 40.1875 11.734375 48.09375 
Q 17.96875 56 27.875 56 
Q 33.9375 56 38.25 53.625 
Q 42.578125 51.265625 45.40625 46.390625 
z
M 14.796875 27.296875 
Q 14.796875 17.390625 18.875 11.75 
Q 22.953125 6.109375 30.078125 6.109375 
Q 37.203125 6.109375 41.296875 11.75 
Q 45.40625 17.390625 45.40625 27.296875 
Q 45.40625 37.203125 41.296875 42.84375 
Q 37.203125 48.484375 30.078125 48.484375 
Q 22.953125 48.484375 18.875 42.84375 
Q 14.796875 37.203125 14.796875 27.296875 
z
" id="DejaVuSans-100"/>
      <path d="M 44.28125 53.078125 
L 44.28125 44.578125 
Q 40.484375 46.53125 36.375 47.5 
Q 32.28125 48.484375 27.875 48.484375 
Q 21.1875 48.484375 17.84375 46.4375 
Q 14.5 44.390625 14.5 40.28125 
Q 14.5 37.15625 16.890625 35.375 
Q 19.28125 33.59375 26.515625 31.984375 
L 29.59375 31.296875 
Q 39.15625 29.25 43.1875 25.515625 
Q 47.21875 21.78125 47.21875 15.09375 
Q 47.21875 7.46875 41.1875 3.015625 
Q 35.15625 -1.421875 24.609375 -1.421875 
Q 20.21875 -1.421875 15.453125 -0.5625 
Q 10.6875 0.296875 5.421875 2 
L 5.421875 11.28125 
Q 10.40625 8.6875 15.234375 7.390625 
Q 20.0625 6.109375 24.8125 6.109375 
Q 31.15625 6.109375 34.5625 8.28125 
Q 37.984375 10.453125 37.984375 14.40625 
Q 37.984375 18.0625 35.515625 20.015625 
Q 33.0625 21.96875 24.703125 23.78125 
L 21.578125 24.515625 
Q 13.234375 26.265625 9.515625 29.90625 
Q 5.8125 33.546875 5.8125 39.890625 
Q 5.8125 47.609375 11.28125 51.796875 
Q 16.75 56 26.8125 56 
Q 31.78125 56 36.171875 55.265625 
Q 40.578125 54.546875 44.28125 53.078125 
z
" id="DejaVuSans-115"/>
      <path d="M 11.71875 12.40625 
L 22.015625 12.40625 
L 22.015625 4 
L 14.015625 -11.625 
L 7.71875 -11.625 
L 11.71875 4 
z
" id="DejaVuSans-44"/>
      <path d="M 8.59375 75.984375 
L 29.296875 75.984375 
L 29.296875 69 
L 17.578125 69 
L 17.578125 -6.203125 
L 29.296875 -6.203125 
L 29.296875 -13.1875 
L 8.59375 -13.1875 
z
" id="DejaVuSans-91"/>
      <path d="M 53.71875 31.203125 
L 47.609375 0 
L 38.625 0 
L 40.28125 8.296875 
Q 36.328125 3.421875 31.265625 1 
Q 26.21875 -1.421875 20.015625 -1.421875 
Q 13.03125 -1.421875 8.5625 2.84375 
Q 4.109375 7.125 4.109375 13.8125 
Q 4.109375 23.390625 11.75 28.953125 
Q 19.390625 34.515625 32.8125 34.515625 
L 45.3125 34.515625 
L 45.796875 36.921875 
Q 45.90625 37.3125 45.953125 37.765625 
Q 46 38.234375 46 39.203125 
Q 46 43.5625 42.453125 45.96875 
Q 38.921875 48.390625 32.515625 48.390625 
Q 28.125 48.390625 23.5 47.265625 
Q 18.890625 46.140625 14.015625 43.890625 
L 15.578125 52.203125 
Q 20.65625 54.109375 25.515625 55.046875 
Q 30.375 56 34.90625 56 
Q 44.578125 56 49.625 51.796875 
Q 54.6875 47.609375 54.6875 39.59375 
Q 54.6875 37.984375 54.4375 35.8125 
Q 54.203125 33.640625 53.71875 31.203125 
z
M 44 27.484375 
L 35.015625 27.484375 
Q 23.96875 27.484375 18.671875 24.53125 
Q 13.375 21.578125 13.375 15.375 
Q 13.375 11.078125 16.078125 8.640625 
Q 18.796875 6.203125 23.578125 6.203125 
Q 30.90625 6.203125 36.375 11.453125 
Q 41.84375 16.703125 43.609375 25.484375 
z
" id="DejaVuSans-Oblique-97"/>
      <path d="M 30.421875 75.984375 
L 30.421875 -13.1875 
L 9.71875 -13.1875 
L 9.71875 -6.203125 
L 21.390625 -6.203125 
L 21.390625 69 
L 9.71875 69 
L 9.71875 75.984375 
z
" id="DejaVuSans-93"/>
     </defs>
     <g transform="translate(303.7 612.55625)scale(0.2 -0.2)">
      <use transform="translate(0 0.015625)" xlink:href="#DejaVuSans-73"/>
      <use transform="translate(29.492188 0.015625)" xlink:href="#DejaVuSans-110"/>
      <use transform="translate(92.871094 0.015625)" xlink:href="#DejaVuSans-116"/>
      <use transform="translate(132.080078 0.015625)" xlink:href="#DejaVuSans-101"/>
      <use transform="translate(193.603516 0.015625)" xlink:href="#DejaVuSans-114"/>
      <use transform="translate(234.716797 0.015625)" xlink:href="#DejaVuSans-112"/>
      <use transform="translate(298.193359 0.015625)" xlink:href="#DejaVuSans-97"/>
      <use transform="translate(359.472656 0.015625)" xlink:href="#DejaVuSans-114"/>
      <use transform="translate(400.585938 0.015625)" xlink:href="#DejaVuSans-116"/>
      <use transform="translate(439.794922 0.015625)" xlink:href="#DejaVuSans-105"/>
      <use transform="translate(467.578125 0.015625)" xlink:href="#DejaVuSans-99"/>
      <use transform="translate(522.558594 0.015625)" xlink:href="#DejaVuSans-108"/>
      <use transform="translate(550.341797 0.015625)" xlink:href="#DejaVuSans-101"/>
      <use transform="translate(611.865234 0.015625)" xlink:href="#DejaVuSans-32"/>
      <use transform="translate(643.652344 0.015625)" xlink:href="#DejaVuSans-100"/>
      <use transform="translate(707.128906 0.015625)" xlink:href="#DejaVuSans-105"/>
      <use transform="translate(734.912109 0.015625)" xlink:href="#DejaVuSans-115"/>
      <use transform="translate(787.011719 0.015625)" xlink:href="#DejaVuSans-116"/>
      <use transform="translate(826.220703 0.015625)" xlink:href="#DejaVuSans-97"/>
      <use transform="translate(887.5 0.015625)" xlink:href="#DejaVuSans-110"/>
      <use transform="translate(950.878906 0.015625)" xlink:href="#DejaVuSans-99"/>
      <use transform="translate(1005.859375 0.015625)" xlink:href="#DejaVuSans-101"/>
      <use transform="translate(1067.382812 0.015625)" xlink:href="#DejaVuSans-44"/>
      <use transform="translate(1099.169922 0.015625)" xlink:href="#DejaVuSans-32"/>
      <use transform="translate(1130.957031 0.015625)" xlink:href="#DejaVuSans-114"/>
      <use transform="translate(1172.070312 0.015625)" xlink:href="#DejaVuSans-32"/>
      <use transform="translate(1203.857422 0.015625)" xlink:href="#DejaVuSans-91"/>
      <use transform="translate(1242.871094 0.015625)" xlink:href="#DejaVuSans-Oblique-97"/>
      <use transform="translate(1304.150391 -16.390625)scale(0.7)" xlink:href="#DejaVuSans-48"/>
      <use transform="translate(1351.420898 0.015625)" xlink:href="#DejaVuSans-93"/>
     </g>
    </g>
   </g>
   <g id="matplotlib.axis_2">
    <g id="ytick_1">
     <g id="line2d_8">
      <defs>
       <path d="M 0 0 
L -3.5 0 
" id="m51ec6d81a3" style="stroke:#000000;stroke-width:0.8;"/>
      </defs>
      <g>
       <use style="stroke:#000000;stroke-width:0.8;" x="108" xlink:href="#m51ec6d81a3" y="567"/>
      </g>
     </g>
     <g id="text_9">
      <!-- −1000 -->
      <defs>
       <path d="M 10.59375 35.5 
L 73.1875 35.5 
L 73.1875 27.203125 
L 10.59375 27.203125 
z
" id="DejaVuSans-8722"/>
      </defs>
      <g transform="translate(33.340625 574.598438)scale(0.2 -0.2)">
       <use xlink:href="#DejaVuSans-8722"/>
       <use x="83.789062" xlink:href="#DejaVuSans-49"/>
       <use x="147.412109" xlink:href="#DejaVuSans-48"/>
       <use x="211.035156" xlink:href="#DejaVuSans-48"/>
       <use x="274.658203" xlink:href="#DejaVuSans-48"/>
      </g>
     </g>
    </g>
    <g id="ytick_2">
     <g id="line2d_9">
      <g>
       <use style="stroke:#000000;stroke-width:0.8;" x="108" xlink:href="#m51ec6d81a3" y="471.538537"/>
      </g>
     </g>
     <g id="text_10">
      <!-- −800 -->
      <g transform="translate(46.065625 479.136974)scale(0.2 -0.2)">
       <use xlink:href="#DejaVuSans-8722"/>
       <use x="83.789062" xlink:href="#DejaVuSans-56"/>
       <use x="147.412109" xlink:href="#DejaVuSans-48"/>
       <use x="211.035156" xlink:href="#DejaVuSans-48"/>
      </g>
     </g>
    </g>
    <g id="ytick_3">
     <g id="line2d_10">
      <g>
       <use style="stroke:#000000;stroke-width:0.8;" x="108" xlink:href="#m51ec6d81a3" y="376.077073"/>
      </g>
     </g>
     <g id="text_11">
      <!-- −600 -->
      <g transform="translate(46.065625 383.675511)scale(0.2 -0.2)">
       <use xlink:href="#DejaVuSans-8722"/>
       <use x="83.789062" xlink:href="#DejaVuSans-54"/>
       <use x="147.412109" xlink:href="#DejaVuSans-48"/>
       <use x="211.035156" xlink:href="#DejaVuSans-48"/>
      </g>
     </g>
    </g>
    <g id="ytick_4">
     <g id="line2d_11">
      <g>
       <use style="stroke:#000000;stroke-width:0.8;" x="108" xlink:href="#m51ec6d81a3" y="280.61561"/>
      </g>
     </g>
     <g id="text_12">
      <!-- −400 -->
      <g transform="translate(46.065625 288.214047)scale(0.2 -0.2)">
       <use xlink:href="#DejaVuSans-8722"/>
       <use x="83.789062" xlink:href="#DejaVuSans-52"/>
       <use x="147.412109" xlink:href="#DejaVuSans-48"/>
       <use x="211.035156" xlink:href="#DejaVuSans-48"/>
      </g>
     </g>
    </g>
    <g id="ytick_5">
     <g id="line2d_12">
      <g>
       <use style="stroke:#000000;stroke-width:0.8;" x="108" xlink:href="#m51ec6d81a3" y="185.154146"/>
      </g>
     </g>
     <g id="text_13">
      <!-- −200 -->
      <g transform="translate(46.065625 192.752584)scale(0.2 -0.2)">
       <use xlink:href="#DejaVuSans-8722"/>
       <use x="83.789062" xlink:href="#DejaVuSans-50"/>
       <use x="147.412109" xlink:href="#DejaVuSans-48"/>
       <use x="211.035156" xlink:href="#DejaVuSans-48"/>
      </g>
     </g>
    </g>
    <g id="ytick_6">
     <g id="line2d_13">
      <g>
       <use style="stroke:#000000;stroke-width:0.8;" x="108" xlink:href="#m51ec6d81a3" y="89.692683"/>
      </g>
     </g>
     <g id="text_14">
      <!-- 0 -->
      <g transform="translate(88.275 97.29112)scale(0.2 -0.2)">
       <use xlink:href="#DejaVuSans-48"/>
      </g>
     </g>
    </g>
    <g id="text_15">
     <!-- Potential Energy, [cm$^{-1}$] -->
     <defs>
      <path d="M 19.671875 64.796875 
L 19.671875 37.40625 
L 32.078125 37.40625 
Q 38.96875 37.40625 42.71875 40.96875 
Q 46.484375 44.53125 46.484375 51.125 
Q 46.484375 57.671875 42.71875 61.234375 
Q 38.96875 64.796875 32.078125 64.796875 
z
M 9.8125 72.90625 
L 32.078125 72.90625 
Q 44.34375 72.90625 50.609375 67.359375 
Q 56.890625 61.8125 56.890625 51.125 
Q 56.890625 40.328125 50.609375 34.8125 
Q 44.34375 29.296875 32.078125 29.296875 
L 19.671875 29.296875 
L 19.671875 0 
L 9.8125 0 
z
" id="DejaVuSans-80"/>
      <path d="M 30.609375 48.390625 
Q 23.390625 48.390625 19.1875 42.75 
Q 14.984375 37.109375 14.984375 27.296875 
Q 14.984375 17.484375 19.15625 11.84375 
Q 23.34375 6.203125 30.609375 6.203125 
Q 37.796875 6.203125 41.984375 11.859375 
Q 46.1875 17.53125 46.1875 27.296875 
Q 46.1875 37.015625 41.984375 42.703125 
Q 37.796875 48.390625 30.609375 48.390625 
z
M 30.609375 56 
Q 42.328125 56 49.015625 48.375 
Q 55.71875 40.765625 55.71875 27.296875 
Q 55.71875 13.875 49.015625 6.21875 
Q 42.328125 -1.421875 30.609375 -1.421875 
Q 18.84375 -1.421875 12.171875 6.21875 
Q 5.515625 13.875 5.515625 27.296875 
Q 5.515625 40.765625 12.171875 48.375 
Q 18.84375 56 30.609375 56 
z
" id="DejaVuSans-111"/>
      <path d="M 9.8125 72.90625 
L 55.90625 72.90625 
L 55.90625 64.59375 
L 19.671875 64.59375 
L 19.671875 43.015625 
L 54.390625 43.015625 
L 54.390625 34.71875 
L 19.671875 34.71875 
L 19.671875 8.296875 
L 56.78125 8.296875 
L 56.78125 0 
L 9.8125 0 
z
" id="DejaVuSans-69"/>
      <path d="M 45.40625 27.984375 
Q 45.40625 37.75 41.375 43.109375 
Q 37.359375 48.484375 30.078125 48.484375 
Q 22.859375 48.484375 18.828125 43.109375 
Q 14.796875 37.75 14.796875 27.984375 
Q 14.796875 18.265625 18.828125 12.890625 
Q 22.859375 7.515625 30.078125 7.515625 
Q 37.359375 7.515625 41.375 12.890625 
Q 45.40625 18.265625 45.40625 27.984375 
z
M 54.390625 6.78125 
Q 54.390625 -7.171875 48.1875 -13.984375 
Q 42 -20.796875 29.203125 -20.796875 
Q 24.46875 -20.796875 20.265625 -20.09375 
Q 16.0625 -19.390625 12.109375 -17.921875 
L 12.109375 -9.1875 
Q 16.0625 -11.328125 19.921875 -12.34375 
Q 23.78125 -13.375 27.78125 -13.375 
Q 36.625 -13.375 41.015625 -8.765625 
Q 45.40625 -4.15625 45.40625 5.171875 
L 45.40625 9.625 
Q 42.625 4.78125 38.28125 2.390625 
Q 33.9375 0 27.875 0 
Q 17.828125 0 11.671875 7.65625 
Q 5.515625 15.328125 5.515625 27.984375 
Q 5.515625 40.671875 11.671875 48.328125 
Q 17.828125 56 27.875 56 
Q 33.9375 56 38.28125 53.609375 
Q 42.625 51.21875 45.40625 46.390625 
L 45.40625 54.6875 
L 54.390625 54.6875 
z
" id="DejaVuSans-103"/>
      <path d="M 32.171875 -5.078125 
Q 28.375 -14.84375 24.75 -17.8125 
Q 21.140625 -20.796875 15.09375 -20.796875 
L 7.90625 -20.796875 
L 7.90625 -13.28125 
L 13.1875 -13.28125 
Q 16.890625 -13.28125 18.9375 -11.515625 
Q 21 -9.765625 23.484375 -3.21875 
L 25.09375 0.875 
L 2.984375 54.6875 
L 12.5 54.6875 
L 29.59375 11.921875 
L 46.6875 54.6875 
L 56.203125 54.6875 
z
" id="DejaVuSans-121"/>
      <path d="M 52 44.1875 
Q 55.375 50.25 60.0625 53.125 
Q 64.75 56 71.09375 56 
Q 79.640625 56 84.28125 50.015625 
Q 88.921875 44.046875 88.921875 33.015625 
L 88.921875 0 
L 79.890625 0 
L 79.890625 32.71875 
Q 79.890625 40.578125 77.09375 44.375 
Q 74.3125 48.1875 68.609375 48.1875 
Q 61.625 48.1875 57.5625 43.546875 
Q 53.515625 38.921875 53.515625 30.90625 
L 53.515625 0 
L 44.484375 0 
L 44.484375 32.71875 
Q 44.484375 40.625 41.703125 44.40625 
Q 38.921875 48.1875 33.109375 48.1875 
Q 26.21875 48.1875 22.15625 43.53125 
Q 18.109375 38.875 18.109375 30.90625 
L 18.109375 0 
L 9.078125 0 
L 9.078125 54.6875 
L 18.109375 54.6875 
L 18.109375 46.1875 
Q 21.1875 51.21875 25.484375 53.609375 
Q 29.78125 56 35.6875 56 
Q 41.65625 56 45.828125 52.96875 
Q 50 49.953125 52 44.1875 
z
" id="DejaVuSans-109"/>
     </defs>
     <g transform="translate(25.140625 445.08)rotate(-90)scale(0.2 -0.2)">
      <use transform="translate(0 0.684375)" xlink:href="#DejaVuSans-80"/>
      <use transform="translate(60.302734 0.684375)" xlink:href="#DejaVuSans-111"/>
      <use transform="translate(121.484375 0.684375)" xlink:href="#DejaVuSans-116"/>
      <use transform="translate(160.693359 0.684375)" xlink:href="#DejaVuSans-101"/>
      <use transform="translate(222.216797 0.684375)" xlink:href="#DejaVuSans-110"/>
      <use transform="translate(285.595703 0.684375)" xlink:href="#DejaVuSans-116"/>
      <use transform="translate(324.804688 0.684375)" xlink:href="#DejaVuSans-105"/>
      <use transform="translate(352.587891 0.684375)" xlink:href="#DejaVuSans-97"/>
      <use transform="translate(413.867188 0.684375)" xlink:href="#DejaVuSans-108"/>
      <use transform="translate(441.650391 0.684375)" xlink:href="#DejaVuSans-32"/>
      <use transform="translate(473.4375 0.684375)" xlink:href="#DejaVuSans-69"/>
      <use transform="translate(536.621094 0.684375)" xlink:href="#DejaVuSans-110"/>
      <use transform="translate(600 0.684375)" xlink:href="#DejaVuSans-101"/>
      <use transform="translate(661.523438 0.684375)" xlink:href="#DejaVuSans-114"/>
      <use transform="translate(702.636719 0.684375)" xlink:href="#DejaVuSans-103"/>
      <use transform="translate(766.113281 0.684375)" xlink:href="#DejaVuSans-121"/>
      <use transform="translate(825.292969 0.684375)" xlink:href="#DejaVuSans-44"/>
      <use transform="translate(857.080078 0.684375)" xlink:href="#DejaVuSans-32"/>
      <use transform="translate(888.867188 0.684375)" xlink:href="#DejaVuSans-91"/>
      <use transform="translate(927.880859 0.684375)" xlink:href="#DejaVuSans-99"/>
      <use transform="translate(982.861328 0.684375)" xlink:href="#DejaVuSans-109"/>
      <use transform="translate(1081.230469 38.965625)scale(0.7)" xlink:href="#DejaVuSans-8722"/>
      <use transform="translate(1139.882812 38.965625)scale(0.7)" xlink:href="#DejaVuSans-49"/>
      <use transform="translate(1187.15332 0.684375)" xlink:href="#DejaVuSans-93"/>
     </g>
    </g>
   </g>
   <g id="line2d_14">
    <path clip-path="url(#p93301f7ab4)" d="M 116.480389 -1 
L 117.02007 78.632031 
L 117.957374 190.437409 
L 118.894678 280.15655 
L 119.831983 351.474985 
L 120.769287 407.474662 
L 121.706591 450.734857 
L 122.643895 483.415626 
L 123.581199 507.326948 
L 124.518503 523.986109 
L 125.455808 534.665384 
L 126.393112 540.431742 
L 127.330416 542.17994 
L 128.26772 540.660146 
L 129.205024 536.501038 
L 130.142328 530.229131 
L 131.079632 522.284977 
L 132.954241 502.791694 
L 134.828849 480.291208 
L 144.201891 362.833667 
L 147.013803 332.106376 
L 149.825716 304.398287 
L 152.637628 279.673005 
L 155.449541 257.760174 
L 157.324149 244.599737 
L 159.198757 232.509647 
L 161.073366 221.413056 
L 162.947974 211.2345 
L 164.822582 201.901336 
L 166.69719 193.344628 
L 168.571799 185.499645 
L 170.446407 178.30608 
L 172.321015 171.708091 
L 174.195624 165.654206 
L 177.007536 157.491261 
L 179.819449 150.304097 
L 182.631361 143.9679 
L 185.443274 138.374075 
L 188.255186 133.42832 
L 191.067099 129.048831 
L 193.879011 125.164678 
L 196.690924 121.714352 
L 199.502836 118.644498 
L 202.314748 115.908795 
L 205.126661 113.466997 
L 207.938573 111.284096 
L 210.750486 109.329604 
L 214.499703 107.03346 
L 218.248919 105.042593 
L 221.998136 103.311898 
L 225.747352 101.803538 
L 230.433873 100.182746 
L 235.120394 98.808546 
L 240.744219 97.426795 
L 246.368044 96.282692 
L 252.929173 95.188222 
L 260.427606 94.1869 
L 268.863344 93.304413 
L 278.236385 92.550891 
L 289.484035 91.876015 
L 303.543598 91.277134 
L 320.415072 90.794252 
L 342.910372 90.393065 
L 373.841409 90.088062 
L 420.706617 89.874948 
L 505.063992 89.748478 
L 733.766206 89.697812 
L 777.819502 89.696215 
L 777.819502 89.696215 
" style="fill:none;stroke:#1f77b4;stroke-linecap:square;stroke-width:1.5;"/>
   </g>
   <g id="line2d_15">
    <path clip-path="url(#p93301f7ab4)" d="M 107.647028 488.8928 
L 112.333549 488.845476 
L 114.208158 488.632628 
L 115.145462 488.358183 
L 116.082766 487.87727 
L 117.02007 487.09866 
L 117.957374 485.928432 
L 118.894678 484.289101 
L 119.831983 482.141625 
L 120.769287 479.504666 
L 122.643895 473.177116 
L 124.518503 466.700251 
L 125.455808 463.968176 
L 126.393112 461.840313 
L 127.330416 460.450894 
L 128.26772 459.864595 
L 129.205024 460.07527 
L 130.142328 461.014405 
L 131.079632 462.56635 
L 132.016937 464.586753 
L 133.891545 469.419576 
L 136.703457 476.705505 
L 138.578066 480.645666 
L 139.51537 482.247035 
L 140.452674 483.604778 
L 141.389978 484.734889 
L 142.327282 485.659874 
L 143.264587 486.405434 
L 145.139195 487.462783 
L 147.013803 488.099206 
L 148.888411 488.466041 
L 151.700324 488.733012 
L 156.386845 488.865149 
L 171.383711 488.892843 
L 777.819502 488.892897 
L 777.819502 488.892897 
" style="fill:none;stroke:#ff7f0e;stroke-linecap:square;stroke-width:1.5;"/>
   </g>
   <g id="line2d_16">
    <path clip-path="url(#p93301f7ab4)" d="M 107.647028 394.907946 
L 112.333549 395.013235 
L 113.270853 395.159753 
L 114.208158 395.454963 
L 115.145462 395.995355 
L 116.082766 396.898536 
L 117.02007 398.282023 
L 117.957374 400.228947 
L 118.894678 402.747405 
L 120.769287 408.964771 
L 121.706591 412.09379 
L 122.643895 414.710148 
L 123.581199 416.396639 
L 124.518503 416.804711 
L 125.455808 415.718526 
L 126.393112 413.094963 
L 127.330416 409.071778 
L 128.26772 403.944266 
L 132.016937 380.895927 
L 132.954241 376.486979 
L 133.891545 373.129637 
L 134.828849 370.890723 
L 135.766153 369.740276 
L 136.703457 369.573419 
L 137.640762 370.235459 
L 138.578066 371.546256 
L 139.51537 373.321116 
L 141.389978 377.591867 
L 143.264587 381.955734 
L 145.139195 385.766647 
L 147.013803 388.76635 
L 147.951107 389.955043 
L 148.888411 390.952757 
L 149.825716 391.778335 
L 151.700324 392.997196 
L 153.574932 393.775983 
L 155.449541 394.254923 
L 158.261453 394.633893 
L 162.01067 394.827408 
L 169.509103 394.901934 
L 234.18309 394.907707 
L 777.819502 394.907707 
L 777.819502 394.907707 
" style="fill:none;stroke:#2ca02c;stroke-linecap:square;stroke-width:1.5;"/>
   </g>
   <g id="line2d_17">
    <path clip-path="url(#p93301f7ab4)" d="M 107.647028 200.9283 
L 111.396245 200.822569 
L 112.333549 200.661386 
L 113.270853 200.325678 
L 114.208158 199.7011 
L 115.145462 198.660066 
L 116.082766 197.105061 
L 117.02007 195.031166 
L 118.894678 190.112264 
L 119.831983 188.099645 
L 120.769287 187.111348 
L 121.706591 187.626463 
L 122.643895 189.885662 
L 123.581199 193.777994 
L 126.393112 209.014495 
L 127.330416 212.382027 
L 128.26772 213.695781 
L 129.205024 212.729973 
L 130.142328 209.68128 
L 131.079632 205.114413 
L 132.954241 194.733018 
L 133.891545 190.610642 
L 134.828849 188.066557 
L 135.766153 187.415363 
L 136.703457 188.67145 
L 137.640762 191.582329 
L 138.578066 195.697776 
L 141.389978 209.622889 
L 142.327282 213.074823 
L 143.264587 215.346266 
L 144.201891 216.299344 
L 145.139195 215.93351 
L 146.076499 214.362497 
L 147.013803 211.783956 
L 147.951107 208.446969 
L 152.637628 189.287269 
L 153.574932 186.334458 
L 154.512236 183.932575 
L 155.449541 182.10715 
L 156.386845 180.850621 
L 157.324149 180.129707 
L 158.261453 179.892731 
L 159.198757 180.076371 
L 160.136061 180.61149 
L 161.073366 181.427895 
L 162.947974 183.639381 
L 169.509103 192.458753 
L 171.383711 194.430644 
L 173.25832 196.045053 
L 175.132928 197.324102 
L 177.007536 198.310314 
L 178.882145 199.053512 
L 180.756753 199.60269 
L 183.568665 200.156586 
L 186.380578 200.488898 
L 191.067099 200.76352 
L 198.565532 200.897169 
L 220.123527 200.928854 
L 777.819502 200.929052 
L 777.819502 200.929052 
" style="fill:none;stroke:#d62728;stroke-linecap:square;stroke-width:1.5;"/>
   </g>
   <g id="line2d_18">
    <path clip-path="url(#p93301f7ab4)" d="M 107.647028 161.534187 
L 111.396245 161.420503 
L 112.333549 161.250258 
L 113.270853 160.900863 
L 114.208158 160.262018 
L 115.145462 159.219274 
L 116.082766 157.701743 
L 117.957374 153.547917 
L 118.894678 151.484892 
L 119.831983 150.059462 
L 120.769287 149.785295 
L 121.706591 151.02882 
L 122.643895 153.862461 
L 123.581199 157.984564 
L 125.455808 167.26656 
L 126.393112 170.665103 
L 127.330416 172.248124 
L 128.26772 171.691807 
L 129.205024 169.114579 
L 130.142328 165.04413 
L 132.016937 155.771255 
L 132.954241 152.312148 
L 133.891545 150.505401 
L 134.828849 150.614094 
L 135.766153 152.556078 
L 136.703457 155.952012 
L 139.51537 168.710093 
L 140.452674 171.757834 
L 141.389978 173.477126 
L 142.327282 173.715679 
L 143.264587 172.51542 
L 144.201891 170.081094 
L 145.139195 166.73369 
L 147.951107 155.085884 
L 148.888411 151.866916 
L 149.825716 149.423852 
L 150.76302 147.897276 
L 151.700324 147.342048 
L 152.637628 147.736747 
L 153.574932 148.997873 
L 154.512236 150.996397 
L 155.449541 153.574626 
L 157.324149 159.78758 
L 160.136061 169.398321 
L 162.01067 174.641996 
L 162.947974 176.713795 
L 163.885278 178.384432 
L 164.822582 179.652174 
L 165.759886 180.530475 
L 166.69719 181.044456 
L 167.634495 181.227581 
L 168.571799 181.118656 
L 169.509103 180.759237 
L 170.446407 180.191495 
L 172.321015 178.593063 
L 175.132928 175.567895 
L 178.882145 171.441224 
L 180.756753 169.612447 
L 182.631361 168.012741 
L 184.505969 166.654317 
L 186.380578 165.528529 
L 188.255186 164.614408 
L 190.129794 163.884988 
L 192.941707 163.074839 
L 195.753619 162.525891 
L 199.502836 162.072459 
L 204.189357 161.777273 
L 210.750486 161.610722 
L 224.810048 161.540513 
L 345.722285 161.535023 
L 777.819502 161.535023 
L 777.819502 161.535023 
" style="fill:none;stroke:#9467bd;stroke-linecap:square;stroke-width:1.5;"/>
   </g>
   <g id="line2d_19">
    <path clip-path="url(#p93301f7ab4)" d="M 107.647028 132.552589 
L 111.396245 132.440982 
L 112.333549 132.276058 
L 113.270853 131.941294 
L 114.208158 131.337155 
L 115.145462 130.366618 
L 116.082766 128.982198 
L 118.894678 123.720348 
L 119.831983 122.767315 
L 120.769287 122.942912 
L 121.706591 124.50318 
L 122.643895 127.400924 
L 125.455808 138.843353 
L 126.393112 141.031421 
L 127.330416 141.407267 
L 128.26772 139.882765 
L 129.205024 136.790107 
L 131.079632 128.753632 
L 132.016937 125.482727 
L 132.954241 123.621647 
L 133.891545 123.496145 
L 134.828849 125.080899 
L 135.766153 128.033928 
L 138.578066 139.058579 
L 139.51537 141.415668 
L 140.452674 142.431824 
L 141.389978 142.012859 
L 142.327282 140.275941 
L 143.264587 137.50789 
L 146.076499 127.150892 
L 147.013803 124.386414 
L 147.951107 122.482427 
L 148.888411 121.59026 
L 149.825716 121.747345 
L 150.76302 122.888896 
L 151.700324 124.868076 
L 152.637628 127.480734 
L 156.386845 139.558924 
L 157.324149 141.932345 
L 158.261453 143.748606 
L 159.198757 144.935768 
L 160.136061 145.465428 
L 161.073366 145.347838 
L 162.01067 144.625381 
L 162.947974 143.365208 
L 163.885278 141.651745 
L 165.759886 137.24719 
L 170.446407 124.815763 
L 172.321015 120.745014 
L 173.25832 119.066944 
L 174.195624 117.64776 
L 175.132928 116.491332 
L 176.070232 115.593881 
L 177.007536 114.945401 
L 177.94484 114.53104 
L 178.882145 114.33238 
L 179.819449 114.328597 
L 180.756753 114.497471 
L 181.694057 114.816246 
L 183.568665 115.813886 
L 185.443274 117.152082 
L 189.19249 120.291306 
L 192.941707 123.398487 
L 195.753619 125.440392 
L 198.565532 127.154595 
L 201.377444 128.536297 
L 204.189357 129.614899 
L 207.001269 130.435334 
L 209.813182 131.046153 
L 213.562398 131.612157 
L 218.248919 132.042958 
L 223.872744 132.315248 
L 232.308482 132.480823 
L 250.117261 132.54818 
L 407.584359 132.553431 
L 777.819502 132.553431 
L 777.819502 132.553431 
" style="fill:none;stroke:#8c564b;stroke-linecap:square;stroke-width:1.5;"/>
   </g>
   <g id="line2d_20">
    <path clip-path="url(#p93301f7ab4)" d="M 107.647028 112.525225 
L 111.396245 112.424864 
L 112.333549 112.27793 
L 113.270853 111.981974 
L 114.208158 111.45276 
L 115.145462 110.612101 
L 116.082766 109.430009 
L 118.894678 105.180232 
L 119.831983 104.565754 
L 120.769287 104.951628 
L 121.706591 106.506553 
L 122.643895 109.1227 
L 124.518503 115.685496 
L 125.455808 118.293393 
L 126.393112 119.62521 
L 127.330416 119.366538 
L 128.26772 117.569163 
L 129.205024 114.640608 
L 131.079632 108.120651 
L 132.016937 105.944466 
L 132.954241 105.149327 
L 133.891545 105.864576 
L 134.828849 107.907446 
L 137.640762 117.074015 
L 138.578066 119.257106 
L 139.51537 120.309853 
L 140.452674 120.102659 
L 141.389978 118.714687 
L 142.327282 116.398713 
L 145.139195 107.756915 
L 146.076499 105.607215 
L 147.013803 104.295148 
L 147.951107 103.937983 
L 148.888411 104.534938 
L 149.825716 105.981729 
L 150.76302 108.09464 
L 154.512236 118.367136 
L 155.449541 120.253316 
L 156.386845 121.545094 
L 157.324149 122.174484 
L 158.261453 122.127614 
L 159.198757 121.438702 
L 160.136061 120.181344 
L 161.073366 118.458356 
L 162.947974 114.110134 
L 165.759886 107.237375 
L 166.69719 105.295387 
L 167.634495 103.66365 
L 168.571799 102.393639 
L 169.509103 101.516788 
L 170.446407 101.04583 
L 171.383711 100.97683 
L 172.321015 101.291658 
L 173.25832 101.960698 
L 174.195624 102.945595 
L 175.132928 104.201913 
L 177.007536 107.335127 
L 179.819449 112.858937 
L 182.631361 118.353247 
L 184.505969 121.579754 
L 186.380578 124.277963 
L 188.255186 126.375485 
L 189.19249 127.19278 
L 190.129794 127.858498 
L 191.067099 128.377655 
L 192.004403 128.757109 
L 192.941707 129.00515 
L 194.816315 129.145094 
L 196.690924 128.879168 
L 198.565532 128.292083 
L 200.44014 127.465239 
L 203.252053 125.934547 
L 213.562398 119.895212 
L 217.311615 118.128294 
L 220.123527 117.021358 
L 223.872744 115.82329 
L 227.621961 114.905938 
L 231.371177 114.220481 
L 236.057698 113.616342 
L 241.681523 113.155761 
L 248.242652 112.850662 
L 257.615694 112.648017 
L 274.487169 112.545606 
L 337.286547 112.526011 
L 777.819502 112.525996 
L 777.819502 112.525996 
" style="fill:none;stroke:#e377c2;stroke-linecap:square;stroke-width:1.5;"/>
   </g>
   <g id="line2d_21">
    <path clip-path="url(#p93301f7ab4)" d="M 107.647028 99.904057 
L 111.396245 99.822148 
L 112.333549 99.702933 
L 113.270853 99.463985 
L 114.208158 99.039207 
L 115.145462 98.36929 
L 116.082766 97.43596 
L 118.894678 94.202031 
L 119.831983 93.814208 
L 120.769287 94.231367 
L 121.706591 95.560761 
L 122.643895 97.683653 
L 124.518503 102.732975 
L 125.455808 104.58849 
L 126.393112 105.377487 
L 127.330416 104.904965 
L 128.26772 103.275266 
L 131.079632 95.983695 
L 132.016937 94.594965 
L 132.954241 94.355255 
L 133.891545 95.288259 
L 134.828849 97.171828 
L 137.640762 104.180072 
L 138.578066 105.492347 
L 139.51537 105.829166 
L 140.452674 105.16768 
L 141.389978 103.650906 
L 143.264587 99.194266 
L 144.201891 96.941823 
L 145.139195 95.098557 
L 146.076499 93.894253 
L 147.013803 93.45788 
L 147.951107 93.812537 
L 148.888411 94.884816 
L 149.825716 96.52473 
L 153.574932 104.562612 
L 154.512236 105.943539 
L 155.449541 106.797486 
L 156.386845 107.074884 
L 157.324149 106.777539 
L 158.261453 105.952306 
L 159.198757 104.681972 
L 161.073366 101.252844 
L 163.885278 95.734887 
L 164.822582 94.2379 
L 165.759886 93.047595 
L 166.69719 92.212786 
L 167.634495 91.759906 
L 168.571799 91.694311 
L 169.509103 92.002561 
L 170.446407 92.655345 
L 171.383711 93.610782 
L 172.321015 94.817839 
L 174.195624 97.756656 
L 177.94484 104.110359 
L 179.819449 106.73536 
L 180.756753 107.786279 
L 181.694057 108.634985 
L 182.631361 109.269436 
L 183.568665 109.684091 
L 184.505969 109.879273 
L 185.443274 109.860453 
L 186.380578 109.637474 
L 187.317882 109.223768 
L 188.255186 108.635587 
L 190.129794 107.010566 
L 192.004403 104.922379 
L 194.816315 101.27923 
L 199.502836 95.036348 
L 201.377444 92.797515 
L 203.252053 90.812941 
L 205.126661 89.120998 
L 207.001269 87.739984 
L 208.875878 86.671701 
L 210.750486 85.905103 
L 212.625094 85.419735 
L 214.499703 85.188793 
L 216.374311 85.181737 
L 218.248919 85.36641 
L 221.060832 85.932983 
L 223.872744 86.756871 
L 227.621961 88.102071 
L 240.744219 93.093394 
L 245.43074 94.55907 
L 250.117261 95.781483 
L 254.803781 96.769928 
L 259.490302 97.550125 
L 265.114127 98.256759 
L 271.675256 98.834393 
L 279.173689 99.261683 
L 288.546731 99.57107 
L 302.606293 99.783664 
L 326.976202 99.884947 
L 417.894705 99.904675 
L 777.819502 99.904693 
L 777.819502 99.904693 
" style="fill:none;stroke:#7f7f7f;stroke-linecap:square;stroke-width:1.5;"/>
   </g>
   <g id="line2d_22">
    <path clip-path="url(#p93301f7ab4)" d="M 107.647028 93.051299 
L 111.396245 92.992666 
L 113.270853 92.737561 
L 114.208158 92.436245 
L 115.145462 91.962916 
L 116.082766 91.306825 
L 117.957374 89.709358 
L 118.894678 89.080039 
L 119.831983 88.844169 
L 120.769287 89.179252 
L 121.706591 90.150549 
L 122.643895 91.661801 
L 124.518503 95.154443 
L 125.455808 96.379797 
L 126.393112 96.835698 
L 127.330416 96.406091 
L 128.26772 95.188417 
L 131.079632 90.156374 
L 132.016937 89.309032 
L 132.954241 89.284929 
L 133.891545 90.070267 
L 134.828849 91.480239 
L 136.703457 94.912475 
L 137.640762 96.260268 
L 138.578066 97.016985 
L 139.51537 97.067202 
L 140.452674 96.426324 
L 141.389978 95.224805 
L 144.201891 90.529742 
L 145.139195 89.390034 
L 146.076499 88.750487 
L 147.013803 88.676098 
L 147.951107 89.154481 
L 148.888411 90.10613 
L 150.76302 92.882791 
L 152.637628 95.74737 
L 153.574932 96.846084 
L 154.512236 97.585608 
L 155.449541 97.912951 
L 156.386845 97.815976 
L 157.324149 97.319753 
L 158.261453 96.480126 
L 159.198757 95.375586 
L 163.885278 89.142867 
L 164.822582 88.331793 
L 165.759886 87.793442 
L 166.69719 87.546912 
L 167.634495 87.593812 
L 168.571799 87.920167 
L 169.509103 88.498931 
L 170.446407 89.292859 
L 172.321015 91.344182 
L 176.070232 95.930807 
L 177.94484 97.774526 
L 178.882145 98.474562 
L 179.819449 99.002771 
L 180.756753 99.349619 
L 181.694057 99.511854 
L 182.631361 99.491932 
L 183.568665 99.29731 
L 184.505969 98.939688 
L 185.443274 98.434206 
L 187.317882 97.052692 
L 189.19249 95.313383 
L 195.753619 88.746388 
L 197.628228 87.276243 
L 199.502836 86.144007 
L 201.377444 85.387097 
L 203.252053 85.016834 
L 205.126661 85.022844 
L 207.001269 85.377862 
L 208.875878 86.042492 
L 210.750486 86.969581 
L 212.625094 88.108023 
L 215.437007 90.098784 
L 221.060832 94.512327 
L 224.810048 97.356726 
L 227.621961 99.282656 
L 230.433873 100.968934 
L 233.245786 102.385564 
L 236.057698 103.521819 
L 238.869611 104.381912 
L 241.681523 104.980951 
L 244.493436 105.34139 
L 247.305348 105.49008 
L 251.054565 105.408952 
L 254.803781 105.071395 
L 259.490302 104.386425 
L 265.114127 103.321129 
L 290.421339 98.217853 
L 297.919773 97.066595 
L 305.418206 96.127953 
L 313.853943 95.300902 
L 323.226985 94.618863 
L 333.537331 94.091542 
L 346.659589 93.659579 
L 363.531064 93.351147 
L 387.900972 93.156855 
L 432.891571 93.066335 
L 630.662749 93.051759 
L 777.819502 93.051757 
L 777.819502 93.051757 
" style="fill:none;stroke:#bcbd22;stroke-linecap:square;stroke-width:1.5;"/>
   </g>
   <g id="line2d_23">
    <path clip-path="url(#p93301f7ab4)" d="M 107.647028 90.245651 
L 112.333549 90.325787 
L 114.208158 90.588001 
L 116.082766 91.214209 
L 118.894678 92.43719 
L 119.831983 92.559559 
L 120.769287 92.364567 
L 121.706591 91.818384 
L 123.581199 89.987629 
L 124.518503 89.056005 
L 125.455808 88.395245 
L 126.393112 88.164896 
L 127.330416 88.424409 
L 128.26772 89.114367 
L 131.079632 91.877586 
L 132.016937 92.317517 
L 132.954241 92.298653 
L 133.891545 91.835573 
L 134.828849 91.037 
L 136.703457 89.146774 
L 137.640762 88.42843 
L 138.578066 88.047497 
L 139.51537 88.06141 
L 140.452674 88.45443 
L 141.389978 89.147662 
L 144.201891 91.732035 
L 145.139195 92.325179 
L 146.076499 92.631145 
L 147.013803 92.6201 
L 147.951107 92.305532 
L 148.888411 91.737714 
L 150.76302 90.16376 
L 152.637628 88.614783 
L 153.574932 88.050275 
L 154.512236 87.696851 
L 155.449541 87.578921 
L 156.386845 87.697715 
L 157.324149 88.03381 
L 158.261453 88.551164 
L 160.136061 89.931931 
L 162.947974 92.05306 
L 163.885278 92.582502 
L 164.822582 92.967855 
L 165.759886 93.19183 
L 166.69719 93.247883 
L 167.634495 93.139404 
L 168.571799 92.87842 
L 170.446407 91.980385 
L 173.25832 90.098952 
L 176.070232 88.257126 
L 177.94484 87.359852 
L 179.819449 86.855946 
L 181.694057 86.781866 
L 183.568665 87.11642 
L 185.443274 87.794636 
L 187.317882 88.723708 
L 194.816315 92.904387 
L 196.690924 93.644137 
L 198.565532 94.157157 
L 200.44014 94.42619 
L 202.314748 94.451328 
L 204.189357 94.246875 
L 206.063965 93.83792 
L 208.875878 92.913412 
L 211.68779 91.728068 
L 221.998136 87.080362 
L 224.810048 86.127423 
L 227.621961 85.408575 
L 230.433873 84.941124 
L 233.245786 84.725861 
L 236.057698 84.750793 
L 238.869611 84.994716 
L 241.681523 85.430428 
L 245.43074 86.256795 
L 250.117261 87.579279 
L 256.67839 89.727802 
L 267.92604 93.442481 
L 273.549865 95.062349 
L 279.173689 96.438932 
L 284.797514 97.55068 
L 290.421339 98.39882 
L 296.045164 98.999584 
L 301.668989 99.378069 
L 308.230118 99.57802 
L 315.728552 99.547044 
L 324.164289 99.262499 
L 334.474635 98.673205 
L 350.408805 97.496382 
L 384.151755 94.956925 
L 402.897838 93.810569 
L 421.643922 92.897799 
L 441.327309 92.165141 
L 463.822609 91.557395 
L 490.067125 91.078252 
L 522.872771 90.712454 
L 566.926066 90.457827 
L 636.286574 90.305996 
L 777.819502 90.249984 
L 777.819502 90.249984 
" style="fill:none;stroke:#17becf;stroke-linecap:square;stroke-width:1.5;"/>
   </g>
   <g id="patch_3">
    <path d="M 108 567 
L 108 77.76 
" style="fill:none;stroke:#000000;stroke-linecap:square;stroke-linejoin:miter;stroke-width:0.8;"/>
   </g>
   <g id="patch_4">
    <path d="M 777.6 567 
L 777.6 77.76 
" style="fill:none;stroke:#000000;stroke-linecap:square;stroke-linejoin:miter;stroke-width:0.8;"/>
   </g>
   <g id="patch_5">
    <path d="M 108 567 
L 777.6 567 
" style="fill:none;stroke:#000000;stroke-linecap:square;stroke-linejoin:miter;stroke-width:0.8;"/>
   </g>
   <g id="patch_6">
    <path d="M 108 77.76 
L 777.6 77.76 
" style="fill:none;stroke:#000000;stroke-linecap:square;stroke-linejoin:miter;stroke-width:0.8;"/>
   </g>
  </g>
 </g>
 <defs>
  <clipPath id="p93301f7ab4">
   <rect height="489.24" width="669.6" x="108" y="77.76"/>
  </clipPath>
 </defs>
</svg>
