<?xml version="1.0" encoding="utf-8" standalone="no"?>
<!DOCTYPE svg PUBLIC "-//W3C//DTD SVG 1.1//EN"
  "http://www.w3.org/Graphics/SVG/1.1/DTD/svg11.dtd">
<!-- Created with matplotlib (https://matplotlib.org/) -->
<svg height="504pt" version="1.1" viewBox="0 0 1152 504" width="1152pt" xmlns="http://www.w3.org/2000/svg" xmlns:xlink="http://www.w3.org/1999/xlink">
 <defs>
  <style type="text/css">
*{stroke-linecap:butt;stroke-linejoin:round;}
  </style>
 </defs>
 <g id="figure_1">
  <g id="patch_1">
   <path d="M 0 504 
L 1152 504 
L 1152 0 
L 0 0 
z
" style="fill:#ffffff;"/>
  </g>
  <g id="axes_1">
   <g id="patch_2">
    <path d="M 144 441 
L 1036.8 441 
L 1036.8 60.48 
L 144 60.48 
z
" style="fill:#ffffff;"/>
   </g>
   <g id="matplotlib.axis_1">
    <g id="xtick_1">
     <g id="text_1">
      <!-- 0.0 -->
      <defs>
       <path d="M 31.78125 66.40625 
Q 24.171875 66.40625 20.328125 58.90625 
Q 16.5 51.421875 16.5 36.375 
Q 16.5 21.390625 20.328125 13.890625 
Q 24.171875 6.390625 31.78125 6.390625 
Q 39.453125 6.390625 43.28125 13.890625 
Q 47.125 21.390625 47.125 36.375 
Q 47.125 51.421875 43.28125 58.90625 
Q 39.453125 66.40625 31.78125 66.40625 
z
M 31.78125 74.21875 
Q 44.046875 74.21875 50.515625 64.515625 
Q 56.984375 54.828125 56.984375 36.375 
Q 56.984375 17.96875 50.515625 8.265625 
Q 44.046875 -1.421875 31.78125 -1.421875 
Q 19.53125 -1.421875 13.0625 8.265625 
Q 6.59375 17.96875 6.59375 36.375 
Q 6.59375 54.828125 13.0625 64.515625 
Q 19.53125 74.21875 31.78125 74.21875 
z
" id="DejaVuSans-48"/>
       <path d="M 10.6875 12.40625 
L 21 12.40625 
L 21 0 
L 10.6875 0 
z
" id="DejaVuSans-46"/>
      </defs>
      <g style="fill:#ffffff;" transform="translate(128.096875 463.196875)scale(0.2 -0.2)">
       <use xlink:href="#DejaVuSans-48"/>
       <use x="63.623047" xlink:href="#DejaVuSans-46"/>
       <use x="95.410156" xlink:href="#DejaVuSans-48"/>
      </g>
     </g>
    </g>
    <g id="xtick_2">
     <g id="text_2">
      <!-- 0.2 -->
      <defs>
       <path d="M 19.1875 8.296875 
L 53.609375 8.296875 
L 53.609375 0 
L 7.328125 0 
L 7.328125 8.296875 
Q 12.9375 14.109375 22.625 23.890625 
Q 32.328125 33.6875 34.8125 36.53125 
Q 39.546875 41.84375 41.421875 45.53125 
Q 43.3125 49.21875 43.3125 52.78125 
Q 43.3125 58.59375 39.234375 62.25 
Q 35.15625 65.921875 28.609375 65.921875 
Q 23.96875 65.921875 18.8125 64.3125 
Q 13.671875 62.703125 7.8125 59.421875 
L 7.8125 69.390625 
Q 13.765625 71.78125 18.9375 73 
Q 24.125 74.21875 28.421875 74.21875 
Q 39.75 74.21875 46.484375 68.546875 
Q 53.21875 62.890625 53.21875 53.421875 
Q 53.21875 48.921875 51.53125 44.890625 
Q 49.859375 40.875 45.40625 35.40625 
Q 44.1875 33.984375 37.640625 27.21875 
Q 31.109375 20.453125 19.1875 8.296875 
z
" id="DejaVuSans-50"/>
      </defs>
      <g style="fill:#ffffff;" transform="translate(306.656875 463.196875)scale(0.2 -0.2)">
       <use xlink:href="#DejaVuSans-48"/>
       <use x="63.623047" xlink:href="#DejaVuSans-46"/>
       <use x="95.410156" xlink:href="#DejaVuSans-50"/>
      </g>
     </g>
    </g>
    <g id="xtick_3">
     <g id="text_3">
      <!-- 0.4 -->
      <defs>
       <path d="M 37.796875 64.3125 
L 12.890625 25.390625 
L 37.796875 25.390625 
z
M 35.203125 72.90625 
L 47.609375 72.90625 
L 47.609375 25.390625 
L 58.015625 25.390625 
L 58.015625 17.1875 
L 47.609375 17.1875 
L 47.609375 0 
L 37.796875 0 
L 37.796875 17.1875 
L 4.890625 17.1875 
L 4.890625 26.703125 
z
" id="DejaVuSans-52"/>
      </defs>
      <g style="fill:#ffffff;" transform="translate(485.216875 463.196875)scale(0.2 -0.2)">
       <use xlink:href="#DejaVuSans-48"/>
       <use x="63.623047" xlink:href="#DejaVuSans-46"/>
       <use x="95.410156" xlink:href="#DejaVuSans-52"/>
      </g>
     </g>
    </g>
    <g id="xtick_4">
     <g id="text_4">
      <!-- 0.6 -->
      <defs>
       <path d="M 33.015625 40.375 
Q 26.375 40.375 22.484375 35.828125 
Q 18.609375 31.296875 18.609375 23.390625 
Q 18.609375 15.53125 22.484375 10.953125 
Q 26.375 6.390625 33.015625 6.390625 
Q 39.65625 6.390625 43.53125 10.953125 
Q 47.40625 15.53125 47.40625 23.390625 
Q 47.40625 31.296875 43.53125 35.828125 
Q 39.65625 40.375 33.015625 40.375 
z
M 52.59375 71.296875 
L 52.59375 62.3125 
Q 48.875 64.0625 45.09375 64.984375 
Q 41.3125 65.921875 37.59375 65.921875 
Q 27.828125 65.921875 22.671875 59.328125 
Q 17.53125 52.734375 16.796875 39.40625 
Q 19.671875 43.65625 24.015625 45.921875 
Q 28.375 48.1875 33.59375 48.1875 
Q 44.578125 48.1875 50.953125 41.515625 
Q 57.328125 34.859375 57.328125 23.390625 
Q 57.328125 12.15625 50.6875 5.359375 
Q 44.046875 -1.421875 33.015625 -1.421875 
Q 20.359375 -1.421875 13.671875 8.265625 
Q 6.984375 17.96875 6.984375 36.375 
Q 6.984375 53.65625 15.1875 63.9375 
Q 23.390625 74.21875 37.203125 74.21875 
Q 40.921875 74.21875 44.703125 73.484375 
Q 48.484375 72.75 52.59375 71.296875 
z
" id="DejaVuSans-54"/>
      </defs>
      <g style="fill:#ffffff;" transform="translate(663.776875 463.196875)scale(0.2 -0.2)">
       <use xlink:href="#DejaVuSans-48"/>
       <use x="63.623047" xlink:href="#DejaVuSans-46"/>
       <use x="95.410156" xlink:href="#DejaVuSans-54"/>
      </g>
     </g>
    </g>
    <g id="xtick_5">
     <g id="text_5">
      <!-- 0.8 -->
      <defs>
       <path d="M 31.78125 34.625 
Q 24.75 34.625 20.71875 30.859375 
Q 16.703125 27.09375 16.703125 20.515625 
Q 16.703125 13.921875 20.71875 10.15625 
Q 24.75 6.390625 31.78125 6.390625 
Q 38.8125 6.390625 42.859375 10.171875 
Q 46.921875 13.96875 46.921875 20.515625 
Q 46.921875 27.09375 42.890625 30.859375 
Q 38.875 34.625 31.78125 34.625 
z
M 21.921875 38.8125 
Q 15.578125 40.375 12.03125 44.71875 
Q 8.5 49.078125 8.5 55.328125 
Q 8.5 64.0625 14.71875 69.140625 
Q 20.953125 74.21875 31.78125 74.21875 
Q 42.671875 74.21875 48.875 69.140625 
Q 55.078125 64.0625 55.078125 55.328125 
Q 55.078125 49.078125 51.53125 44.71875 
Q 48 40.375 41.703125 38.8125 
Q 48.828125 37.15625 52.796875 32.3125 
Q 56.78125 27.484375 56.78125 20.515625 
Q 56.78125 9.90625 50.3125 4.234375 
Q 43.84375 -1.421875 31.78125 -1.421875 
Q 19.734375 -1.421875 13.25 4.234375 
Q 6.78125 9.90625 6.78125 20.515625 
Q 6.78125 27.484375 10.78125 32.3125 
Q 14.796875 37.15625 21.921875 38.8125 
z
M 18.3125 54.390625 
Q 18.3125 48.734375 21.84375 45.5625 
Q 25.390625 42.390625 31.78125 42.390625 
Q 38.140625 42.390625 41.71875 45.5625 
Q 45.3125 48.734375 45.3125 54.390625 
Q 45.3125 60.0625 41.71875 63.234375 
Q 38.140625 66.40625 31.78125 66.40625 
Q 25.390625 66.40625 21.84375 63.234375 
Q 18.3125 60.0625 18.3125 54.390625 
z
" id="DejaVuSans-56"/>
      </defs>
      <g style="fill:#ffffff;" transform="translate(842.336875 463.196875)scale(0.2 -0.2)">
       <use xlink:href="#DejaVuSans-48"/>
       <use x="63.623047" xlink:href="#DejaVuSans-46"/>
       <use x="95.410156" xlink:href="#DejaVuSans-56"/>
      </g>
     </g>
    </g>
    <g id="xtick_6">
     <g id="text_6">
      <!-- 1.0 -->
      <defs>
       <path d="M 12.40625 8.296875 
L 28.515625 8.296875 
L 28.515625 63.921875 
L 10.984375 60.40625 
L 10.984375 69.390625 
L 28.421875 72.90625 
L 38.28125 72.90625 
L 38.28125 8.296875 
L 54.390625 8.296875 
L 54.390625 0 
L 12.40625 0 
z
" id="DejaVuSans-49"/>
      </defs>
      <g style="fill:#ffffff;" transform="translate(1020.896875 463.196875)scale(0.2 -0.2)">
       <use xlink:href="#DejaVuSans-49"/>
       <use x="63.623047" xlink:href="#DejaVuSans-46"/>
       <use x="95.410156" xlink:href="#DejaVuSans-48"/>
      </g>
     </g>
    </g>
    <g id="text_7">
     <!-- Interparticle distance, r [$a_0$] -->
     <defs>
      <path d="M 9.8125 72.90625 
L 19.671875 72.90625 
L 19.671875 0 
L 9.8125 0 
z
" id="DejaVuSans-73"/>
      <path d="M 54.890625 33.015625 
L 54.890625 0 
L 45.90625 0 
L 45.90625 32.71875 
Q 45.90625 40.484375 42.875 44.328125 
Q 39.84375 48.1875 33.796875 48.1875 
Q 26.515625 48.1875 22.3125 43.546875 
Q 18.109375 38.921875 18.109375 30.90625 
L 18.109375 0 
L 9.078125 0 
L 9.078125 54.6875 
L 18.109375 54.6875 
L 18.109375 46.1875 
Q 21.34375 51.125 25.703125 53.5625 
Q 30.078125 56 35.796875 56 
Q 45.21875 56 50.046875 50.171875 
Q 54.890625 44.34375 54.890625 33.015625 
z
" id="DejaVuSans-110"/>
      <path d="M 18.3125 70.21875 
L 18.3125 54.6875 
L 36.8125 54.6875 
L 36.8125 47.703125 
L 18.3125 47.703125 
L 18.3125 18.015625 
Q 18.3125 11.328125 20.140625 9.421875 
Q 21.96875 7.515625 27.59375 7.515625 
L 36.8125 7.515625 
L 36.8125 0 
L 27.59375 0 
Q 17.1875 0 13.234375 3.875 
Q 9.28125 7.765625 9.28125 18.015625 
L 9.28125 47.703125 
L 2.6875 47.703125 
L 2.6875 54.6875 
L 9.28125 54.6875 
L 9.28125 70.21875 
z
" id="DejaVuSans-116"/>
      <path d="M 56.203125 29.59375 
L 56.203125 25.203125 
L 14.890625 25.203125 
Q 15.484375 15.921875 20.484375 11.0625 
Q 25.484375 6.203125 34.421875 6.203125 
Q 39.59375 6.203125 44.453125 7.46875 
Q 49.3125 8.734375 54.109375 11.28125 
L 54.109375 2.78125 
Q 49.265625 0.734375 44.1875 -0.34375 
Q 39.109375 -1.421875 33.890625 -1.421875 
Q 20.796875 -1.421875 13.15625 6.1875 
Q 5.515625 13.8125 5.515625 26.8125 
Q 5.515625 40.234375 12.765625 48.109375 
Q 20.015625 56 32.328125 56 
Q 43.359375 56 49.78125 48.890625 
Q 56.203125 41.796875 56.203125 29.59375 
z
M 47.21875 32.234375 
Q 47.125 39.59375 43.09375 43.984375 
Q 39.0625 48.390625 32.421875 48.390625 
Q 24.90625 48.390625 20.390625 44.140625 
Q 15.875 39.890625 15.1875 32.171875 
z
" id="DejaVuSans-101"/>
      <path d="M 41.109375 46.296875 
Q 39.59375 47.171875 37.8125 47.578125 
Q 36.03125 48 33.890625 48 
Q 26.265625 48 22.1875 43.046875 
Q 18.109375 38.09375 18.109375 28.8125 
L 18.109375 0 
L 9.078125 0 
L 9.078125 54.6875 
L 18.109375 54.6875 
L 18.109375 46.1875 
Q 20.953125 51.171875 25.484375 53.578125 
Q 30.03125 56 36.53125 56 
Q 37.453125 56 38.578125 55.875 
Q 39.703125 55.765625 41.0625 55.515625 
z
" id="DejaVuSans-114"/>
      <path d="M 18.109375 8.203125 
L 18.109375 -20.796875 
L 9.078125 -20.796875 
L 9.078125 54.6875 
L 18.109375 54.6875 
L 18.109375 46.390625 
Q 20.953125 51.265625 25.265625 53.625 
Q 29.59375 56 35.59375 56 
Q 45.5625 56 51.78125 48.09375 
Q 58.015625 40.1875 58.015625 27.296875 
Q 58.015625 14.40625 51.78125 6.484375 
Q 45.5625 -1.421875 35.59375 -1.421875 
Q 29.59375 -1.421875 25.265625 0.953125 
Q 20.953125 3.328125 18.109375 8.203125 
z
M 48.6875 27.296875 
Q 48.6875 37.203125 44.609375 42.84375 
Q 40.53125 48.484375 33.40625 48.484375 
Q 26.265625 48.484375 22.1875 42.84375 
Q 18.109375 37.203125 18.109375 27.296875 
Q 18.109375 17.390625 22.1875 11.75 
Q 26.265625 6.109375 33.40625 6.109375 
Q 40.53125 6.109375 44.609375 11.75 
Q 48.6875 17.390625 48.6875 27.296875 
z
" id="DejaVuSans-112"/>
      <path d="M 34.28125 27.484375 
Q 23.390625 27.484375 19.1875 25 
Q 14.984375 22.515625 14.984375 16.5 
Q 14.984375 11.71875 18.140625 8.90625 
Q 21.296875 6.109375 26.703125 6.109375 
Q 34.1875 6.109375 38.703125 11.40625 
Q 43.21875 16.703125 43.21875 25.484375 
L 43.21875 27.484375 
z
M 52.203125 31.203125 
L 52.203125 0 
L 43.21875 0 
L 43.21875 8.296875 
Q 40.140625 3.328125 35.546875 0.953125 
Q 30.953125 -1.421875 24.3125 -1.421875 
Q 15.921875 -1.421875 10.953125 3.296875 
Q 6 8.015625 6 15.921875 
Q 6 25.140625 12.171875 29.828125 
Q 18.359375 34.515625 30.609375 34.515625 
L 43.21875 34.515625 
L 43.21875 35.40625 
Q 43.21875 41.609375 39.140625 45 
Q 35.0625 48.390625 27.6875 48.390625 
Q 23 48.390625 18.546875 47.265625 
Q 14.109375 46.140625 10.015625 43.890625 
L 10.015625 52.203125 
Q 14.9375 54.109375 19.578125 55.046875 
Q 24.21875 56 28.609375 56 
Q 40.484375 56 46.34375 49.84375 
Q 52.203125 43.703125 52.203125 31.203125 
z
" id="DejaVuSans-97"/>
      <path d="M 9.421875 54.6875 
L 18.40625 54.6875 
L 18.40625 0 
L 9.421875 0 
z
M 9.421875 75.984375 
L 18.40625 75.984375 
L 18.40625 64.59375 
L 9.421875 64.59375 
z
" id="DejaVuSans-105"/>
      <path d="M 48.78125 52.59375 
L 48.78125 44.1875 
Q 44.96875 46.296875 41.140625 47.34375 
Q 37.3125 48.390625 33.40625 48.390625 
Q 24.65625 48.390625 19.8125 42.84375 
Q 14.984375 37.3125 14.984375 27.296875 
Q 14.984375 17.28125 19.8125 11.734375 
Q 24.65625 6.203125 33.40625 6.203125 
Q 37.3125 6.203125 41.140625 7.25 
Q 44.96875 8.296875 48.78125 10.40625 
L 48.78125 2.09375 
Q 45.015625 0.34375 40.984375 -0.53125 
Q 36.96875 -1.421875 32.421875 -1.421875 
Q 20.0625 -1.421875 12.78125 6.34375 
Q 5.515625 14.109375 5.515625 27.296875 
Q 5.515625 40.671875 12.859375 48.328125 
Q 20.21875 56 33.015625 56 
Q 37.15625 56 41.109375 55.140625 
Q 45.0625 54.296875 48.78125 52.59375 
z
" id="DejaVuSans-99"/>
      <path d="M 9.421875 75.984375 
L 18.40625 75.984375 
L 18.40625 0 
L 9.421875 0 
z
" id="DejaVuSans-108"/>
      <path id="DejaVuSans-32"/>
      <path d="M 45.40625 46.390625 
L 45.40625 75.984375 
L 54.390625 75.984375 
L 54.390625 0 
L 45.40625 0 
L 45.40625 8.203125 
Q 42.578125 3.328125 38.25 0.953125 
Q 33.9375 -1.421875 27.875 -1.421875 
Q 17.96875 -1.421875 11.734375 6.484375 
Q 5.515625 14.40625 5.515625 27.296875 
Q 5.515625 40.1875 11.734375 48.09375 
Q 17.96875 56 27.875 56 
Q 33.9375 56 38.25 53.625 
Q 42.578125 51.265625 45.40625 46.390625 
z
M 14.796875 27.296875 
Q 14.796875 17.390625 18.875 11.75 
Q 22.953125 6.109375 30.078125 6.109375 
Q 37.203125 6.109375 41.296875 11.75 
Q 45.40625 17.390625 45.40625 27.296875 
Q 45.40625 37.203125 41.296875 42.84375 
Q 37.203125 48.484375 30.078125 48.484375 
Q 22.953125 48.484375 18.875 42.84375 
Q 14.796875 37.203125 14.796875 27.296875 
z
" id="DejaVuSans-100"/>
      <path d="M 44.28125 53.078125 
L 44.28125 44.578125 
Q 40.484375 46.53125 36.375 47.5 
Q 32.28125 48.484375 27.875 48.484375 
Q 21.1875 48.484375 17.84375 46.4375 
Q 14.5 44.390625 14.5 40.28125 
Q 14.5 37.15625 16.890625 35.375 
Q 19.28125 33.59375 26.515625 31.984375 
L 29.59375 31.296875 
Q 39.15625 29.25 43.1875 25.515625 
Q 47.21875 21.78125 47.21875 15.09375 
Q 47.21875 7.46875 41.1875 3.015625 
Q 35.15625 -1.421875 24.609375 -1.421875 
Q 20.21875 -1.421875 15.453125 -0.5625 
Q 10.6875 0.296875 5.421875 2 
L 5.421875 11.28125 
Q 10.40625 8.6875 15.234375 7.390625 
Q 20.0625 6.109375 24.8125 6.109375 
Q 31.15625 6.109375 34.5625 8.28125 
Q 37.984375 10.453125 37.984375 14.40625 
Q 37.984375 18.0625 35.515625 20.015625 
Q 33.0625 21.96875 24.703125 23.78125 
L 21.578125 24.515625 
Q 13.234375 26.265625 9.515625 29.90625 
Q 5.8125 33.546875 5.8125 39.890625 
Q 5.8125 47.609375 11.28125 51.796875 
Q 16.75 56 26.8125 56 
Q 31.78125 56 36.171875 55.265625 
Q 40.578125 54.546875 44.28125 53.078125 
z
" id="DejaVuSans-115"/>
      <path d="M 11.71875 12.40625 
L 22.015625 12.40625 
L 22.015625 4 
L 14.015625 -11.625 
L 7.71875 -11.625 
L 11.71875 4 
z
" id="DejaVuSans-44"/>
      <path d="M 8.59375 75.984375 
L 29.296875 75.984375 
L 29.296875 69 
L 17.578125 69 
L 17.578125 -6.203125 
L 29.296875 -6.203125 
L 29.296875 -13.1875 
L 8.59375 -13.1875 
z
" id="DejaVuSans-91"/>
      <path d="M 53.71875 31.203125 
L 47.609375 0 
L 38.625 0 
L 40.28125 8.296875 
Q 36.328125 3.421875 31.265625 1 
Q 26.21875 -1.421875 20.015625 -1.421875 
Q 13.03125 -1.421875 8.5625 2.84375 
Q 4.109375 7.125 4.109375 13.8125 
Q 4.109375 23.390625 11.75 28.953125 
Q 19.390625 34.515625 32.8125 34.515625 
L 45.3125 34.515625 
L 45.796875 36.921875 
Q 45.90625 37.3125 45.953125 37.765625 
Q 46 38.234375 46 39.203125 
Q 46 43.5625 42.453125 45.96875 
Q 38.921875 48.390625 32.515625 48.390625 
Q 28.125 48.390625 23.5 47.265625 
Q 18.890625 46.140625 14.015625 43.890625 
L 15.578125 52.203125 
Q 20.65625 54.109375 25.515625 55.046875 
Q 30.375 56 34.90625 56 
Q 44.578125 56 49.625 51.796875 
Q 54.6875 47.609375 54.6875 39.59375 
Q 54.6875 37.984375 54.4375 35.8125 
Q 54.203125 33.640625 53.71875 31.203125 
z
M 44 27.484375 
L 35.015625 27.484375 
Q 23.96875 27.484375 18.671875 24.53125 
Q 13.375 21.578125 13.375 15.375 
Q 13.375 11.078125 16.078125 8.640625 
Q 18.796875 6.203125 23.578125 6.203125 
Q 30.90625 6.203125 36.375 11.453125 
Q 41.84375 16.703125 43.609375 25.484375 
z
" id="DejaVuSans-Oblique-97"/>
      <path d="M 30.421875 75.984375 
L 30.421875 -13.1875 
L 9.71875 -13.1875 
L 9.71875 -6.203125 
L 21.390625 -6.203125 
L 21.390625 69 
L 9.71875 69 
L 9.71875 75.984375 
z
" id="DejaVuSans-93"/>
     </defs>
     <g transform="translate(451.3 486.55625)scale(0.2 -0.2)">
      <use transform="translate(0 0.015625)" xlink:href="#DejaVuSans-73"/>
      <use transform="translate(29.492188 0.015625)" xlink:href="#DejaVuSans-110"/>
      <use transform="translate(92.871094 0.015625)" xlink:href="#DejaVuSans-116"/>
      <use transform="translate(132.080078 0.015625)" xlink:href="#DejaVuSans-101"/>
      <use transform="translate(193.603516 0.015625)" xlink:href="#DejaVuSans-114"/>
      <use transform="translate(234.716797 0.015625)" xlink:href="#DejaVuSans-112"/>
      <use transform="translate(298.193359 0.015625)" xlink:href="#DejaVuSans-97"/>
      <use transform="translate(359.472656 0.015625)" xlink:href="#DejaVuSans-114"/>
      <use transform="translate(400.585938 0.015625)" xlink:href="#DejaVuSans-116"/>
      <use transform="translate(439.794922 0.015625)" xlink:href="#DejaVuSans-105"/>
      <use transform="translate(467.578125 0.015625)" xlink:href="#DejaVuSans-99"/>
      <use transform="translate(522.558594 0.015625)" xlink:href="#DejaVuSans-108"/>
      <use transform="translate(550.341797 0.015625)" xlink:href="#DejaVuSans-101"/>
      <use transform="translate(611.865234 0.015625)" xlink:href="#DejaVuSans-32"/>
      <use transform="translate(643.652344 0.015625)" xlink:href="#DejaVuSans-100"/>
      <use transform="translate(707.128906 0.015625)" xlink:href="#DejaVuSans-105"/>
      <use transform="translate(734.912109 0.015625)" xlink:href="#DejaVuSans-115"/>
      <use transform="translate(787.011719 0.015625)" xlink:href="#DejaVuSans-116"/>
      <use transform="translate(826.220703 0.015625)" xlink:href="#DejaVuSans-97"/>
      <use transform="translate(887.5 0.015625)" xlink:href="#DejaVuSans-110"/>
      <use transform="translate(950.878906 0.015625)" xlink:href="#DejaVuSans-99"/>
      <use transform="translate(1005.859375 0.015625)" xlink:href="#DejaVuSans-101"/>
      <use transform="translate(1067.382812 0.015625)" xlink:href="#DejaVuSans-44"/>
      <use transform="translate(1099.169922 0.015625)" xlink:href="#DejaVuSans-32"/>
      <use transform="translate(1130.957031 0.015625)" xlink:href="#DejaVuSans-114"/>
      <use transform="translate(1172.070312 0.015625)" xlink:href="#DejaVuSans-32"/>
      <use transform="translate(1203.857422 0.015625)" xlink:href="#DejaVuSans-91"/>
      <use transform="translate(1242.871094 0.015625)" xlink:href="#DejaVuSans-Oblique-97"/>
      <use transform="translate(1304.150391 -16.390625)scale(0.7)" xlink:href="#DejaVuSans-48"/>
      <use transform="translate(1351.420898 0.015625)" xlink:href="#DejaVuSans-93"/>
     </g>
    </g>
   </g>
   <g id="matplotlib.axis_2">
    <g id="ytick_1">
     <g id="text_8">
      <!-- 0.0 -->
      <g style="fill:#ffffff;" transform="translate(105.19375 448.598437)scale(0.2 -0.2)">
       <use xlink:href="#DejaVuSans-48"/>
       <use x="63.623047" xlink:href="#DejaVuSans-46"/>
       <use x="95.410156" xlink:href="#DejaVuSans-48"/>
      </g>
     </g>
    </g>
    <g id="ytick_2">
     <g id="text_9">
      <!-- 0.2 -->
      <g style="fill:#ffffff;" transform="translate(105.19375 372.494438)scale(0.2 -0.2)">
       <use xlink:href="#DejaVuSans-48"/>
       <use x="63.623047" xlink:href="#DejaVuSans-46"/>
       <use x="95.410156" xlink:href="#DejaVuSans-50"/>
      </g>
     </g>
    </g>
    <g id="ytick_3">
     <g id="text_10">
      <!-- 0.4 -->
      <g style="fill:#ffffff;" transform="translate(105.19375 296.390437)scale(0.2 -0.2)">
       <use xlink:href="#DejaVuSans-48"/>
       <use x="63.623047" xlink:href="#DejaVuSans-46"/>
       <use x="95.410156" xlink:href="#DejaVuSans-52"/>
      </g>
     </g>
    </g>
    <g id="ytick_4">
     <g id="text_11">
      <!-- 0.6 -->
      <g style="fill:#ffffff;" transform="translate(105.19375 220.286437)scale(0.2 -0.2)">
       <use xlink:href="#DejaVuSans-48"/>
       <use x="63.623047" xlink:href="#DejaVuSans-46"/>
       <use x="95.410156" xlink:href="#DejaVuSans-54"/>
      </g>
     </g>
    </g>
    <g id="ytick_5">
     <g id="text_12">
      <!-- 0.8 -->
      <g style="fill:#ffffff;" transform="translate(105.19375 144.182437)scale(0.2 -0.2)">
       <use xlink:href="#DejaVuSans-48"/>
       <use x="63.623047" xlink:href="#DejaVuSans-46"/>
       <use x="95.410156" xlink:href="#DejaVuSans-56"/>
      </g>
     </g>
    </g>
    <g id="ytick_6">
     <g id="text_13">
      <!-- 1.0 -->
      <g style="fill:#ffffff;" transform="translate(105.19375 68.078438)scale(0.2 -0.2)">
       <use xlink:href="#DejaVuSans-49"/>
       <use x="63.623047" xlink:href="#DejaVuSans-46"/>
       <use x="95.410156" xlink:href="#DejaVuSans-48"/>
      </g>
     </g>
    </g>
    <g id="text_14">
     <!-- Potential Energy, [cm$^{-1}$] -->
     <defs>
      <path d="M 19.671875 64.796875 
L 19.671875 37.40625 
L 32.078125 37.40625 
Q 38.96875 37.40625 42.71875 40.96875 
Q 46.484375 44.53125 46.484375 51.125 
Q 46.484375 57.671875 42.71875 61.234375 
Q 38.96875 64.796875 32.078125 64.796875 
z
M 9.8125 72.90625 
L 32.078125 72.90625 
Q 44.34375 72.90625 50.609375 67.359375 
Q 56.890625 61.8125 56.890625 51.125 
Q 56.890625 40.328125 50.609375 34.8125 
Q 44.34375 29.296875 32.078125 29.296875 
L 19.671875 29.296875 
L 19.671875 0 
L 9.8125 0 
z
" id="DejaVuSans-80"/>
      <path d="M 30.609375 48.390625 
Q 23.390625 48.390625 19.1875 42.75 
Q 14.984375 37.109375 14.984375 27.296875 
Q 14.984375 17.484375 19.15625 11.84375 
Q 23.34375 6.203125 30.609375 6.203125 
Q 37.796875 6.203125 41.984375 11.859375 
Q 46.1875 17.53125 46.1875 27.296875 
Q 46.1875 37.015625 41.984375 42.703125 
Q 37.796875 48.390625 30.609375 48.390625 
z
M 30.609375 56 
Q 42.328125 56 49.015625 48.375 
Q 55.71875 40.765625 55.71875 27.296875 
Q 55.71875 13.875 49.015625 6.21875 
Q 42.328125 -1.421875 30.609375 -1.421875 
Q 18.84375 -1.421875 12.171875 6.21875 
Q 5.515625 13.875 5.515625 27.296875 
Q 5.515625 40.765625 12.171875 48.375 
Q 18.84375 56 30.609375 56 
z
" id="DejaVuSans-111"/>
      <path d="M 9.8125 72.90625 
L 55.90625 72.90625 
L 55.90625 64.59375 
L 19.671875 64.59375 
L 19.671875 43.015625 
L 54.390625 43.015625 
L 54.390625 34.71875 
L 19.671875 34.71875 
L 19.671875 8.296875 
L 56.78125 8.296875 
L 56.78125 0 
L 9.8125 0 
z
" id="DejaVuSans-69"/>
      <path d="M 45.40625 27.984375 
Q 45.40625 37.75 41.375 43.109375 
Q 37.359375 48.484375 30.078125 48.484375 
Q 22.859375 48.484375 18.828125 43.109375 
Q 14.796875 37.75 14.796875 27.984375 
Q 14.796875 18.265625 18.828125 12.890625 
Q 22.859375 7.515625 30.078125 7.515625 
Q 37.359375 7.515625 41.375 12.890625 
Q 45.40625 18.265625 45.40625 27.984375 
z
M 54.390625 6.78125 
Q 54.390625 -7.171875 48.1875 -13.984375 
Q 42 -20.796875 29.203125 -20.796875 
Q 24.46875 -20.796875 20.265625 -20.09375 
Q 16.0625 -19.390625 12.109375 -17.921875 
L 12.109375 -9.1875 
Q 16.0625 -11.328125 19.921875 -12.34375 
Q 23.78125 -13.375 27.78125 -13.375 
Q 36.625 -13.375 41.015625 -8.765625 
Q 45.40625 -4.15625 45.40625 5.171875 
L 45.40625 9.625 
Q 42.625 4.78125 38.28125 2.390625 
Q 33.9375 0 27.875 0 
Q 17.828125 0 11.671875 7.65625 
Q 5.515625 15.328125 5.515625 27.984375 
Q 5.515625 40.671875 11.671875 48.328125 
Q 17.828125 56 27.875 56 
Q 33.9375 56 38.28125 53.609375 
Q 42.625 51.21875 45.40625 46.390625 
L 45.40625 54.6875 
L 54.390625 54.6875 
z
" id="DejaVuSans-103"/>
      <path d="M 32.171875 -5.078125 
Q 28.375 -14.84375 24.75 -17.8125 
Q 21.140625 -20.796875 15.09375 -20.796875 
L 7.90625 -20.796875 
L 7.90625 -13.28125 
L 13.1875 -13.28125 
Q 16.890625 -13.28125 18.9375 -11.515625 
Q 21 -9.765625 23.484375 -3.21875 
L 25.09375 0.875 
L 2.984375 54.6875 
L 12.5 54.6875 
L 29.59375 11.921875 
L 46.6875 54.6875 
L 56.203125 54.6875 
z
" id="DejaVuSans-121"/>
      <path d="M 52 44.1875 
Q 55.375 50.25 60.0625 53.125 
Q 64.75 56 71.09375 56 
Q 79.640625 56 84.28125 50.015625 
Q 88.921875 44.046875 88.921875 33.015625 
L 88.921875 0 
L 79.890625 0 
L 79.890625 32.71875 
Q 79.890625 40.578125 77.09375 44.375 
Q 74.3125 48.1875 68.609375 48.1875 
Q 61.625 48.1875 57.5625 43.546875 
Q 53.515625 38.921875 53.515625 30.90625 
L 53.515625 0 
L 44.484375 0 
L 44.484375 32.71875 
Q 44.484375 40.625 41.703125 44.40625 
Q 38.921875 48.1875 33.109375 48.1875 
Q 26.21875 48.1875 22.15625 43.53125 
Q 18.109375 38.875 18.109375 30.90625 
L 18.109375 0 
L 9.078125 0 
L 9.078125 54.6875 
L 18.109375 54.6875 
L 18.109375 46.1875 
Q 21.1875 51.21875 25.484375 53.609375 
Q 29.78125 56 35.6875 56 
Q 41.65625 56 45.828125 52.96875 
Q 50 49.953125 52 44.1875 
z
" id="DejaVuSans-109"/>
      <path d="M 10.59375 35.5 
L 73.1875 35.5 
L 73.1875 27.203125 
L 10.59375 27.203125 
z
" id="DejaVuSans-8722"/>
     </defs>
     <g transform="translate(80.99375 373.44)rotate(-90)scale(0.2 -0.2)">
      <use transform="translate(0 0.684375)" xlink:href="#DejaVuSans-80"/>
      <use transform="translate(60.302734 0.684375)" xlink:href="#DejaVuSans-111"/>
      <use transform="translate(121.484375 0.684375)" xlink:href="#DejaVuSans-116"/>
      <use transform="translate(160.693359 0.684375)" xlink:href="#DejaVuSans-101"/>
      <use transform="translate(222.216797 0.684375)" xlink:href="#DejaVuSans-110"/>
      <use transform="translate(285.595703 0.684375)" xlink:href="#DejaVuSans-116"/>
      <use transform="translate(324.804688 0.684375)" xlink:href="#DejaVuSans-105"/>
      <use transform="translate(352.587891 0.684375)" xlink:href="#DejaVuSans-97"/>
      <use transform="translate(413.867188 0.684375)" xlink:href="#DejaVuSans-108"/>
      <use transform="translate(441.650391 0.684375)" xlink:href="#DejaVuSans-32"/>
      <use transform="translate(473.4375 0.684375)" xlink:href="#DejaVuSans-69"/>
      <use transform="translate(536.621094 0.684375)" xlink:href="#DejaVuSans-110"/>
      <use transform="translate(600 0.684375)" xlink:href="#DejaVuSans-101"/>
      <use transform="translate(661.523438 0.684375)" xlink:href="#DejaVuSans-114"/>
      <use transform="translate(702.636719 0.684375)" xlink:href="#DejaVuSans-103"/>
      <use transform="translate(766.113281 0.684375)" xlink:href="#DejaVuSans-121"/>
      <use transform="translate(825.292969 0.684375)" xlink:href="#DejaVuSans-44"/>
      <use transform="translate(857.080078 0.684375)" xlink:href="#DejaVuSans-32"/>
      <use transform="translate(888.867188 0.684375)" xlink:href="#DejaVuSans-91"/>
      <use transform="translate(927.880859 0.684375)" xlink:href="#DejaVuSans-99"/>
      <use transform="translate(982.861328 0.684375)" xlink:href="#DejaVuSans-109"/>
      <use transform="translate(1081.230469 38.965625)scale(0.7)" xlink:href="#DejaVuSans-8722"/>
      <use transform="translate(1139.882812 38.965625)scale(0.7)" xlink:href="#DejaVuSans-49"/>
      <use transform="translate(1187.15332 0.684375)" xlink:href="#DejaVuSans-93"/>
     </g>
    </g>
   </g>
   <g id="patch_3">
    <path d="M 144 441 
L 144 60.48 
" style="fill:none;"/>
   </g>
   <g id="patch_4">
    <path d="M 1036.8 441 
L 1036.8 60.48 
" style="fill:none;"/>
   </g>
   <g id="patch_5">
    <path d="M 144 441 
L 1036.8 441 
" style="fill:none;"/>
   </g>
   <g id="patch_6">
    <path d="M 144 60.48 
L 1036.8 60.48 
" style="fill:none;"/>
   </g>
  </g>
  <g id="axes_2">
   <g id="patch_7">
    <path d="M 144 441 
L 579.512195 441 
L 579.512195 60.48 
L 144 60.48 
z
" style="fill:#ffffff;"/>
   </g>
   <g id="matplotlib.axis_3">
    <g id="xtick_7">
     <g id="line2d_1">
      <defs>
       <path d="M 0 0 
L 0 3.5 
" id="m17fef23fda" style="stroke:#000000;stroke-width:0.8;"/>
      </defs>
      <g>
       <use style="stroke:#000000;stroke-width:0.8;" x="164.738676" xlink:href="#m17fef23fda" y="441"/>
      </g>
     </g>
     <g id="text_15">
      <!-- 2 -->
      <g transform="translate(158.376176 463.196875)scale(0.2 -0.2)">
       <use xlink:href="#DejaVuSans-50"/>
      </g>
     </g>
    </g>
    <g id="xtick_8">
     <g id="line2d_2">
      <g>
       <use style="stroke:#000000;stroke-width:0.8;" x="247.69338" xlink:href="#m17fef23fda" y="441"/>
      </g>
     </g>
     <g id="text_16">
      <!-- 4 -->
      <g transform="translate(241.33088 463.196875)scale(0.2 -0.2)">
       <use xlink:href="#DejaVuSans-52"/>
      </g>
     </g>
    </g>
    <g id="xtick_9">
     <g id="line2d_3">
      <g>
       <use style="stroke:#000000;stroke-width:0.8;" x="330.648084" xlink:href="#m17fef23fda" y="441"/>
      </g>
     </g>
     <g id="text_17">
      <!-- 6 -->
      <g transform="translate(324.285584 463.196875)scale(0.2 -0.2)">
       <use xlink:href="#DejaVuSans-54"/>
      </g>
     </g>
    </g>
    <g id="xtick_10">
     <g id="line2d_4">
      <g>
       <use style="stroke:#000000;stroke-width:0.8;" x="413.602787" xlink:href="#m17fef23fda" y="441"/>
      </g>
     </g>
     <g id="text_18">
      <!-- 8 -->
      <g transform="translate(407.240287 463.196875)scale(0.2 -0.2)">
       <use xlink:href="#DejaVuSans-56"/>
      </g>
     </g>
    </g>
    <g id="xtick_11">
     <g id="line2d_5">
      <g>
       <use style="stroke:#000000;stroke-width:0.8;" x="496.557491" xlink:href="#m17fef23fda" y="441"/>
      </g>
     </g>
     <g id="text_19">
      <!-- 10 -->
      <g transform="translate(483.832491 463.196875)scale(0.2 -0.2)">
       <use xlink:href="#DejaVuSans-49"/>
       <use x="63.623047" xlink:href="#DejaVuSans-48"/>
      </g>
     </g>
    </g>
    <g id="xtick_12">
     <g id="line2d_6">
      <g>
       <use style="stroke:#000000;stroke-width:0.8;" x="579.512195" xlink:href="#m17fef23fda" y="441"/>
      </g>
     </g>
     <g id="text_20">
      <!-- 12 -->
      <g transform="translate(566.787195 463.196875)scale(0.2 -0.2)">
       <use xlink:href="#DejaVuSans-49"/>
       <use x="63.623047" xlink:href="#DejaVuSans-50"/>
      </g>
     </g>
    </g>
   </g>
   <g id="matplotlib.axis_4">
    <g id="ytick_7">
     <g id="line2d_7">
      <defs>
       <path d="M 0 0 
L -3.5 0 
" id="m3c8ab552c7" style="stroke:#000000;stroke-width:0.8;"/>
      </defs>
      <g>
       <use style="stroke:#000000;stroke-width:0.8;" x="144" xlink:href="#m3c8ab552c7" y="441"/>
      </g>
     </g>
     <g id="text_21">
      <!-- −25 -->
      <defs>
       <path d="M 10.796875 72.90625 
L 49.515625 72.90625 
L 49.515625 64.59375 
L 19.828125 64.59375 
L 19.828125 46.734375 
Q 21.96875 47.46875 24.109375 47.828125 
Q 26.265625 48.1875 28.421875 48.1875 
Q 40.625 48.1875 47.75 41.5 
Q 54.890625 34.8125 54.890625 23.390625 
Q 54.890625 11.625 47.5625 5.09375 
Q 40.234375 -1.421875 26.90625 -1.421875 
Q 22.3125 -1.421875 17.546875 -0.640625 
Q 12.796875 0.140625 7.71875 1.703125 
L 7.71875 11.625 
Q 12.109375 9.234375 16.796875 8.0625 
Q 21.484375 6.890625 26.703125 6.890625 
Q 35.15625 6.890625 40.078125 11.328125 
Q 45.015625 15.765625 45.015625 23.390625 
Q 45.015625 31 40.078125 35.4375 
Q 35.15625 39.890625 26.703125 39.890625 
Q 22.75 39.890625 18.8125 39.015625 
Q 14.890625 38.140625 10.796875 36.28125 
z
" id="DejaVuSans-53"/>
      </defs>
      <g transform="translate(94.790625 448.598438)scale(0.2 -0.2)">
       <use xlink:href="#DejaVuSans-8722"/>
       <use x="83.789062" xlink:href="#DejaVuSans-50"/>
       <use x="147.412109" xlink:href="#DejaVuSans-53"/>
      </g>
     </g>
    </g>
    <g id="ytick_8">
     <g id="line2d_8">
      <g>
       <use style="stroke:#000000;stroke-width:0.8;" x="144" xlink:href="#m3c8ab552c7" y="370.533333"/>
      </g>
     </g>
     <g id="text_22">
      <!-- −20 -->
      <g transform="translate(94.790625 378.131771)scale(0.2 -0.2)">
       <use xlink:href="#DejaVuSans-8722"/>
       <use x="83.789062" xlink:href="#DejaVuSans-50"/>
       <use x="147.412109" xlink:href="#DejaVuSans-48"/>
      </g>
     </g>
    </g>
    <g id="ytick_9">
     <g id="line2d_9">
      <g>
       <use style="stroke:#000000;stroke-width:0.8;" x="144" xlink:href="#m3c8ab552c7" y="300.066667"/>
      </g>
     </g>
     <g id="text_23">
      <!-- −15 -->
      <g transform="translate(94.790625 307.665104)scale(0.2 -0.2)">
       <use xlink:href="#DejaVuSans-8722"/>
       <use x="83.789062" xlink:href="#DejaVuSans-49"/>
       <use x="147.412109" xlink:href="#DejaVuSans-53"/>
      </g>
     </g>
    </g>
    <g id="ytick_10">
     <g id="line2d_10">
      <g>
       <use style="stroke:#000000;stroke-width:0.8;" x="144" xlink:href="#m3c8ab552c7" y="229.6"/>
      </g>
     </g>
     <g id="text_24">
      <!-- −10 -->
      <g transform="translate(94.790625 237.198438)scale(0.2 -0.2)">
       <use xlink:href="#DejaVuSans-8722"/>
       <use x="83.789062" xlink:href="#DejaVuSans-49"/>
       <use x="147.412109" xlink:href="#DejaVuSans-48"/>
      </g>
     </g>
    </g>
    <g id="ytick_11">
     <g id="line2d_11">
      <g>
       <use style="stroke:#000000;stroke-width:0.8;" x="144" xlink:href="#m3c8ab552c7" y="159.133333"/>
      </g>
     </g>
     <g id="text_25">
      <!-- −5 -->
      <g transform="translate(107.515625 166.731771)scale(0.2 -0.2)">
       <use xlink:href="#DejaVuSans-8722"/>
       <use x="83.789062" xlink:href="#DejaVuSans-53"/>
      </g>
     </g>
    </g>
    <g id="ytick_12">
     <g id="line2d_12">
      <g>
       <use style="stroke:#000000;stroke-width:0.8;" x="144" xlink:href="#m3c8ab552c7" y="88.666667"/>
      </g>
     </g>
     <g id="text_26">
      <!-- 0 -->
      <g transform="translate(124.275 96.265104)scale(0.2 -0.2)">
       <use xlink:href="#DejaVuSans-48"/>
      </g>
     </g>
    </g>
   </g>
   <g id="line2d_13">
    <path clip-path="url(#p83728a1363)" d="M 151.599167 -1 
L 151.719305 505 
M 238.415532 505 
L 240.11326 479.087614 
L 242.464685 446.26083 
L 244.81611 416.595147 
L 247.167535 389.74966 
L 249.51896 365.423891 
L 251.870385 343.352604 
L 254.22181 323.301323 
L 256.573235 305.062463 
L 258.92466 288.451977 
L 261.276085 273.306456 
L 263.627511 259.480611 
L 265.978936 246.845082 
L 268.330361 235.284534 
L 270.681786 224.696003 
L 273.033211 214.987441 
L 275.384636 206.076459 
L 277.736061 197.889212 
L 280.087486 190.359437 
L 282.438911 183.427599 
L 284.790336 177.04014 
L 287.141761 171.14883 
L 289.493186 165.710178 
L 292.62842 159.095478 
L 295.763653 153.133368 
L 298.898887 147.751384 
L 302.03412 142.885975 
L 305.169353 138.481302 
L 308.304587 134.48822 
L 311.43982 130.863393 
L 314.575054 127.568545 
L 317.710287 124.569813 
L 320.84552 121.837192 
L 324.764562 118.755348 
L 328.683604 116.00229 
L 332.602646 113.538556 
L 336.521688 111.32993 
L 340.440729 109.346679 
L 345.14358 107.22805 
L 349.84643 105.358284 
L 355.333088 103.447881 
L 360.819747 101.787682 
L 367.090213 100.149824 
L 373.36068 98.745517 
L 380.414955 97.398674 
L 388.253039 96.141369 
L 396.874931 94.994903 
L 406.280631 93.970796 
L 417.253948 93.010956 
L 429.794882 92.151905 
L 443.903432 91.412066 
L 461.147216 90.742873 
L 481.526233 90.182825 
L 507.391909 89.706736 
L 541.095668 89.324185 
L 580.286086 89.068055 
L 580.286086 89.068055 
" style="fill:none;stroke:#1f77b4;stroke-linecap:square;stroke-width:1.5;"/>
   </g>
   <g id="line2d_14">
    <path clip-path="url(#p83728a1363)" d="M 81.783972 390.194126 
L 579.512195 390.194126 
" style="fill:none;stroke:#ff7f0e;stroke-dasharray:5.55,2.4;stroke-dashoffset:0;stroke-width:1.5;"/>
   </g>
   <g id="line2d_15">
    <path clip-path="url(#p83728a1363)" d="M 81.783972 187.849194 
L 579.512195 187.849194 
" style="fill:none;stroke:#2ca02c;stroke-dasharray:5.55,2.4;stroke-dashoffset:0;stroke-width:1.5;"/>
   </g>
   <g id="line2d_16">
    <path clip-path="url(#p83728a1363)" d="M 81.783972 104.986452 
L 579.512195 104.986452 
" style="fill:none;stroke:#d62728;stroke-dasharray:5.55,2.4;stroke-dashoffset:0;stroke-width:1.5;"/>
   </g>
   <g id="line2d_17">
    <path clip-path="url(#p83728a1363)" d="M 143.704832 104.985317 
L 146.056257 104.933306 
L 146.840066 104.840383 
L 147.623874 104.630393 
L 148.407682 104.211086 
L 149.191491 103.469045 
L 149.975299 102.305287 
L 150.759107 100.695564 
L 152.326724 96.796705 
L 153.110532 95.278965 
L 153.894341 94.736988 
L 154.678149 95.600611 
L 155.461958 98.019662 
L 156.245766 101.745139 
L 157.813383 110.254276 
L 158.597191 113.180787 
L 159.380999 114.201007 
L 160.164808 113.05162 
L 160.948616 109.99579 
L 163.300041 97.757458 
L 164.083849 95.808997 
L 164.867658 95.892546 
L 165.651466 97.943532 
L 166.435274 101.480421 
L 168.002891 109.852256 
L 168.7867 113.033812 
L 169.570508 114.720968 
L 170.354316 114.659348 
L 171.138125 112.918657 
L 171.921933 109.848326 
L 174.273358 98.402103 
L 175.057166 95.775062 
L 175.840975 94.419933 
L 176.624783 94.468855 
L 177.408591 95.86208 
L 178.1924 98.376952 
L 179.760017 105.348015 
L 181.327633 112.208451 
L 182.111442 114.708666 
L 182.89525 116.273982 
L 183.679058 116.796295 
L 184.462867 116.270158 
L 185.246675 114.781587 
L 186.030483 112.490223 
L 187.5981 106.374787 
L 189.165717 99.838481 
L 189.949525 96.980279 
L 190.733334 94.635374 
L 191.517142 92.928643 
L 192.30095 91.936656 
L 193.084759 91.688395 
L 193.868567 92.168849 
L 194.652375 93.324751 
L 195.436184 95.071727 
L 196.219992 97.30216 
L 197.787609 102.7145 
L 200.139034 111.282182 
L 201.70665 115.976008 
L 202.490459 117.766558 
L 203.274267 119.116908 
L 204.058076 119.998364 
L 204.841884 120.399856 
L 205.625692 120.326465 
L 206.409501 119.797567 
L 207.193309 118.844722 
L 207.977117 117.509437 
L 208.760926 115.840895 
L 210.328542 111.726024 
L 212.679967 104.491669 
L 215.031393 97.32639 
L 216.599009 93.209743 
L 218.166626 89.933382 
L 218.950434 88.665049 
L 219.734243 87.66121 
L 220.518051 86.928734 
L 221.301859 86.469659 
L 222.085668 86.281622 
L 222.869476 86.35832 
L 223.653284 86.689979 
L 224.437093 87.263846 
L 225.220901 88.064659 
L 226.00471 89.075113 
L 227.572326 91.648154 
L 229.139943 94.819837 
L 231.491368 100.327282 
L 237.761835 115.692244 
L 239.329452 119.004422 
L 240.897068 121.927138 
L 242.464685 124.406929 
L 244.032302 126.408786 
L 245.599918 127.914274 
L 247.167535 128.919423 
L 247.951343 129.236545 
L 248.735152 129.432534 
L 249.51896 129.509986 
L 250.302769 129.472 
L 251.870385 129.06424 
L 253.438002 128.241772 
L 255.005619 127.041485 
L 256.573235 125.503107 
L 258.140852 123.667895 
L 260.492277 120.44955 
L 262.843702 116.794711 
L 265.978936 111.465909 
L 277.736061 90.826516 
L 280.871294 85.932223 
L 284.006528 81.492866 
L 286.357953 78.491019 
L 288.709378 75.782108 
L 291.060803 73.369698 
L 293.412228 71.251865 
L 295.763653 69.422263 
L 298.115078 67.871069 
L 300.466503 66.585811 
L 302.817928 65.552082 
L 305.169353 64.754148 
L 307.520778 64.175461 
L 309.872204 63.799074 
L 312.223629 63.60799 
L 315.358862 63.612519 
L 318.494095 63.878206 
L 321.629329 64.368574 
L 325.548371 65.245895 
L 329.467412 66.360781 
L 334.170263 67.937162 
L 340.440729 70.315452 
L 349.84643 74.179031 
L 364.738788 80.287059 
L 373.36068 83.554811 
L 381.198764 86.275216 
L 388.253039 88.501585 
L 395.307314 90.515058 
L 403.145398 92.509585 
L 410.983481 94.263139 
L 418.821565 95.794765 
L 427.443457 97.248236 
L 436.849157 98.589682 
L 446.254857 99.710548 
L 457.228174 100.782466 
L 468.9853 101.698137 
L 482.310042 102.503059 
L 497.2024 103.176112 
L 515.229993 103.754865 
L 536.392818 104.204979 
L 563.826111 104.55444 
L 580.286086 104.684096 
L 580.286086 104.684096 
" style="fill:none;stroke:#d62728;stroke-linecap:square;stroke-width:1.5;"/>
   </g>
   <g id="line2d_18">
    <path clip-path="url(#p83728a1363)" d="M 143.704832 187.847166 
L 146.056257 187.754038 
L 146.840066 187.58748 
L 147.623874 187.210733 
L 148.407682 186.457618 
L 149.191491 185.123087 
L 149.975299 183.026707 
L 150.759107 180.12087 
L 152.326724 173.045669 
L 153.110532 170.258407 
L 153.894341 169.213736 
L 154.678149 170.697822 
L 155.461958 174.99971 
L 156.245766 181.693064 
L 157.813383 197.162018 
L 158.597191 202.589124 
L 159.380999 204.608318 
L 160.164808 202.705583 
L 160.948616 197.312487 
L 163.300041 175.025508 
L 164.083849 171.27262 
L 164.867658 171.165866 
L 165.651466 174.64414 
L 166.435274 180.888924 
L 168.002891 196.090337 
L 168.7867 202.059729 
L 169.570508 205.411237 
L 170.354316 205.633651 
L 171.138125 202.795196 
L 171.921933 197.473652 
L 174.273358 176.679161 
L 175.057166 171.631379 
L 175.840975 168.798817 
L 176.624783 168.469347 
L 177.408591 170.58811 
L 178.1924 174.802979 
L 178.976208 180.541059 
L 181.327633 199.788098 
L 182.111442 204.654315 
L 182.89525 207.929677 
L 183.679058 209.379485 
L 184.462867 208.949979 
L 185.246675 206.7522 
L 186.030483 203.033485 
L 186.814292 198.141464 
L 190.733334 170.536671 
L 191.517142 166.944417 
L 192.30095 164.560054 
L 193.084759 163.468167 
L 193.868567 163.67589 
L 194.652375 165.121322 
L 195.436184 167.684672 
L 196.219992 171.200989 
L 197.787609 180.286326 
L 200.922842 200.600541 
L 202.490459 208.766399 
L 203.274267 211.866867 
L 204.058076 214.20631 
L 204.841884 215.742502 
L 205.625692 216.461047 
L 206.409501 216.372809 
L 207.193309 215.510827 
L 207.977117 213.926915 
L 208.760926 211.68813 
L 209.544734 208.873252 
L 211.112351 201.868783 
L 213.463776 189.32805 
L 216.599009 172.510371 
L 218.166626 165.353264 
L 219.734243 159.561684 
L 220.518051 157.254687 
L 221.301859 155.365084 
L 222.085668 153.902321 
L 222.869476 152.86918 
L 223.653284 152.262423 
L 224.437093 152.073463 
L 225.220901 152.289039 
L 226.00471 152.891892 
L 226.788518 153.861418 
L 227.572326 155.174294 
L 228.356135 156.805073 
L 229.923751 160.911163 
L 231.491368 165.953335 
L 233.058985 171.701621 
L 235.41041 181.164856 
L 241.680877 206.915958 
L 244.032302 215.445924 
L 246.383727 222.914471 
L 247.951343 227.234492 
L 249.51896 231.004473 
L 251.086577 234.221227 
L 252.654194 236.893384 
L 254.22181 239.039063 
L 255.789427 240.683742 
L 257.357044 241.858355 
L 258.92466 242.597634 
L 260.492277 242.93868 
L 262.059894 242.919769 
L 263.627511 242.579365 
L 265.195127 241.955333 
L 266.762744 241.084318 
L 268.330361 240.001276 
L 270.681786 238.050581 
L 273.033211 235.797863 
L 276.168444 232.476893 
L 282.438911 225.368925 
L 287.92557 219.253373 
L 291.844611 215.177947 
L 295.763653 211.434953 
L 298.898887 208.704707 
L 302.03412 206.215705 
L 305.169353 203.965122 
L 308.304587 201.944375 
L 311.43982 200.14101 
L 315.358862 198.169731 
L 319.277904 196.483228 
L 323.196946 195.049218 
L 327.115987 193.836361 
L 331.818837 192.631651 
L 336.521688 191.657275 
L 342.008346 190.758322 
L 348.278813 189.979324 
L 355.333088 189.342993 
L 363.95498 188.812462 
L 374.144489 188.419445 
L 387.469231 188.134417 
L 407.848248 187.946934 
L 446.254857 187.86189 
L 580.286086 187.849203 
L 580.286086 187.849203 
" style="fill:none;stroke:#2ca02c;stroke-linecap:square;stroke-width:1.5;"/>
   </g>
   <g id="line2d_19">
    <path clip-path="url(#p83728a1363)" d="M 143.704832 390.191309 
L 146.056257 390.06143 
L 146.840066 389.828533 
L 147.623874 389.30053 
L 148.407682 388.242226 
L 149.191491 386.360875 
L 149.975299 383.393806 
L 150.759107 379.260078 
L 152.326724 369.066966 
L 153.110532 364.936966 
L 153.894341 363.219293 
L 154.678149 365.066894 
L 155.461958 370.954798 
L 156.245766 380.357111 
L 157.813383 402.72062 
L 158.597191 410.938722 
L 159.380999 414.4332 
L 160.164808 412.340391 
L 160.948616 405.122436 
L 163.300041 372.827978 
L 164.083849 366.677276 
L 164.867658 365.615595 
L 165.651466 369.747883 
L 166.435274 378.090234 
L 168.7867 409.12983 
L 169.570508 414.941914 
L 170.354316 416.43369 
L 171.138125 413.503959 
L 171.921933 406.786148 
L 173.48955 387.047634 
L 174.273358 377.071538 
L 175.057166 368.907688 
L 175.840975 363.573813 
L 176.624783 361.641111 
L 177.408591 363.21189 
L 178.1924 367.96103 
L 178.976208 375.224229 
L 182.111442 410.824108 
L 182.89525 416.940251 
L 183.679058 420.722391 
L 184.462867 421.950991 
L 185.246675 420.634044 
L 186.030483 416.979079 
L 186.814292 411.352754 
L 188.381908 396.165102 
L 190.733334 371.726003 
L 191.517142 365.095831 
L 192.30095 359.823955 
L 193.084759 356.126576 
L 193.868567 354.120763 
L 194.652375 353.830244 
L 195.436184 355.195485 
L 196.219992 358.086672 
L 197.0038 362.318317 
L 197.787609 367.664388 
L 199.355225 380.680444 
L 202.490459 408.821072 
L 204.058076 420.447233 
L 204.841884 425.101766 
L 205.625692 428.860697 
L 206.409501 431.670689 
L 207.193309 433.507199 
L 207.977117 434.371665 
L 208.760926 434.288311 
L 209.544734 433.300733 
L 210.328542 431.468423 
L 211.112351 428.863363 
L 211.896159 425.566779 
L 213.463776 417.252356 
L 215.031393 407.252662 
L 218.166626 384.990252 
L 220.518051 368.632166 
L 222.085668 358.716348 
L 223.653284 349.926644 
L 225.220901 342.433008 
L 226.788518 336.316477 
L 228.356135 331.585039 
L 229.139943 329.725237 
L 229.923751 328.18977 
L 230.70756 326.966129 
L 231.491368 326.040068 
L 232.275176 325.395975 
L 233.058985 325.017223 
L 233.842793 324.886477 
L 234.626601 324.98597 
L 235.41041 325.29775 
L 236.194218 325.80389 
L 236.978026 326.486673 
L 238.545643 328.313251 
L 240.11326 330.645207 
L 241.680877 333.361053 
L 244.032302 337.920168 
L 254.22181 358.604485 
L 256.573235 362.750455 
L 258.92466 366.518295 
L 261.276085 369.895637 
L 263.627511 372.887904 
L 265.978936 375.512706 
L 268.330361 377.795405 
L 270.681786 379.765714 
L 273.033211 381.455184 
L 275.384636 382.895406 
L 277.736061 384.116794 
L 280.871294 385.453753 
L 284.006528 386.512727 
L 287.141761 387.346226 
L 291.060803 388.137918 
L 295.763653 388.811704 
L 301.250312 389.330478 
L 307.520778 389.693631 
L 316.14267 389.96036 
L 329.467412 390.123404 
L 357.684513 390.188766 
L 580.286086 390.194126 
L 580.286086 390.194126 
" style="fill:none;stroke:#ff7f0e;stroke-linecap:square;stroke-width:1.5;"/>
   </g>
   <g id="patch_8">
    <path d="M 144 441 
L 144 60.48 
" style="fill:none;stroke:#000000;stroke-linecap:square;stroke-linejoin:miter;stroke-width:0.8;"/>
   </g>
   <g id="patch_9">
    <path d="M 579.512195 441 
L 579.512195 60.48 
" style="fill:none;stroke:#000000;stroke-linecap:square;stroke-linejoin:miter;stroke-width:0.8;"/>
   </g>
   <g id="patch_10">
    <path d="M 144 441 
L 579.512195 441 
" style="fill:none;stroke:#000000;stroke-linecap:square;stroke-linejoin:miter;stroke-width:0.8;"/>
   </g>
   <g id="patch_11">
    <path d="M 144 60.48 
L 579.512195 60.48 
" style="fill:none;stroke:#000000;stroke-linecap:square;stroke-linejoin:miter;stroke-width:0.8;"/>
   </g>
  </g>
  <g id="axes_3">
   <g id="patch_12">
    <path d="M 601.287805 441 
L 1036.8 441 
L 1036.8 60.48 
L 601.287805 60.48 
z
" style="fill:#ffffff;"/>
   </g>
   <g id="matplotlib.axis_5">
    <g id="xtick_13">
     <g id="line2d_20">
      <g>
       <use style="stroke:#000000;stroke-width:0.8;" x="622.026481" xlink:href="#m17fef23fda" y="441"/>
      </g>
     </g>
     <g id="text_27">
      <!-- 2 -->
      <g transform="translate(615.663981 463.196875)scale(0.2 -0.2)">
       <use xlink:href="#DejaVuSans-50"/>
      </g>
     </g>
    </g>
    <g id="xtick_14">
     <g id="line2d_21">
      <g>
       <use style="stroke:#000000;stroke-width:0.8;" x="704.981185" xlink:href="#m17fef23fda" y="441"/>
      </g>
     </g>
     <g id="text_28">
      <!-- 4 -->
      <g transform="translate(698.618685 463.196875)scale(0.2 -0.2)">
       <use xlink:href="#DejaVuSans-52"/>
      </g>
     </g>
    </g>
    <g id="xtick_15">
     <g id="line2d_22">
      <g>
       <use style="stroke:#000000;stroke-width:0.8;" x="787.935889" xlink:href="#m17fef23fda" y="441"/>
      </g>
     </g>
     <g id="text_29">
      <!-- 6 -->
      <g transform="translate(781.573389 463.196875)scale(0.2 -0.2)">
       <use xlink:href="#DejaVuSans-54"/>
      </g>
     </g>
    </g>
    <g id="xtick_16">
     <g id="line2d_23">
      <g>
       <use style="stroke:#000000;stroke-width:0.8;" x="870.890592" xlink:href="#m17fef23fda" y="441"/>
      </g>
     </g>
     <g id="text_30">
      <!-- 8 -->
      <g transform="translate(864.528092 463.196875)scale(0.2 -0.2)">
       <use xlink:href="#DejaVuSans-56"/>
      </g>
     </g>
    </g>
    <g id="xtick_17">
     <g id="line2d_24">
      <g>
       <use style="stroke:#000000;stroke-width:0.8;" x="953.845296" xlink:href="#m17fef23fda" y="441"/>
      </g>
     </g>
     <g id="text_31">
      <!-- 10 -->
      <g transform="translate(941.120296 463.196875)scale(0.2 -0.2)">
       <use xlink:href="#DejaVuSans-49"/>
       <use x="63.623047" xlink:href="#DejaVuSans-48"/>
      </g>
     </g>
    </g>
    <g id="xtick_18">
     <g id="line2d_25">
      <g>
       <use style="stroke:#000000;stroke-width:0.8;" x="1036.8" xlink:href="#m17fef23fda" y="441"/>
      </g>
     </g>
     <g id="text_32">
      <!-- 12 -->
      <g transform="translate(1024.075 463.196875)scale(0.2 -0.2)">
       <use xlink:href="#DejaVuSans-49"/>
       <use x="63.623047" xlink:href="#DejaVuSans-50"/>
      </g>
     </g>
    </g>
   </g>
   <g id="matplotlib.axis_6">
    <g id="ytick_13">
     <g id="line2d_26">
      <g>
       <use style="stroke:#000000;stroke-width:0.8;" x="601.287805" xlink:href="#m3c8ab552c7" y="441"/>
      </g>
     </g>
    </g>
    <g id="ytick_14">
     <g id="line2d_27">
      <g>
       <use style="stroke:#000000;stroke-width:0.8;" x="601.287805" xlink:href="#m3c8ab552c7" y="370.533333"/>
      </g>
     </g>
    </g>
    <g id="ytick_15">
     <g id="line2d_28">
      <g>
       <use style="stroke:#000000;stroke-width:0.8;" x="601.287805" xlink:href="#m3c8ab552c7" y="300.066667"/>
      </g>
     </g>
    </g>
    <g id="ytick_16">
     <g id="line2d_29">
      <g>
       <use style="stroke:#000000;stroke-width:0.8;" x="601.287805" xlink:href="#m3c8ab552c7" y="229.6"/>
      </g>
     </g>
    </g>
    <g id="ytick_17">
     <g id="line2d_30">
      <g>
       <use style="stroke:#000000;stroke-width:0.8;" x="601.287805" xlink:href="#m3c8ab552c7" y="159.133333"/>
      </g>
     </g>
    </g>
    <g id="ytick_18">
     <g id="line2d_31">
      <g>
       <use style="stroke:#000000;stroke-width:0.8;" x="601.287805" xlink:href="#m3c8ab552c7" y="88.666667"/>
      </g>
     </g>
    </g>
   </g>
   <g id="line2d_32">
    <path clip-path="url(#p103751d5b0)" d="M 608.886972 -1 
L 609.00711 505 
M 695.703336 505 
L 697.401065 479.087614 
L 699.75249 446.26083 
L 702.103915 416.595147 
L 704.45534 389.74966 
L 706.806765 365.423891 
L 709.15819 343.352604 
L 711.509615 323.301323 
L 713.86104 305.062463 
L 716.212465 288.451977 
L 718.56389 273.306456 
L 720.915315 259.480611 
L 723.266741 246.845082 
L 725.618166 235.284534 
L 727.969591 224.696003 
L 730.321016 214.987441 
L 732.672441 206.076459 
L 735.023866 197.889212 
L 737.375291 190.359437 
L 739.726716 183.427599 
L 742.078141 177.04014 
L 744.429566 171.14883 
L 746.780991 165.710178 
L 749.916225 159.095478 
L 753.051458 153.133368 
L 756.186691 147.751384 
L 759.321925 142.885975 
L 762.457158 138.481302 
L 765.592392 134.48822 
L 768.727625 130.863393 
L 771.862859 127.568545 
L 774.998092 124.569813 
L 778.133325 121.837192 
L 782.052367 118.755348 
L 785.971409 116.00229 
L 789.890451 113.538556 
L 793.809492 111.32993 
L 797.728534 109.346679 
L 802.431384 107.22805 
L 807.134235 105.358284 
L 812.620893 103.447881 
L 818.107551 101.787682 
L 824.378018 100.149824 
L 830.648485 98.745517 
L 837.70276 97.398674 
L 845.540844 96.141369 
L 854.162736 94.994903 
L 863.568436 93.970796 
L 874.541753 93.010956 
L 887.082687 92.151905 
L 901.191237 91.412066 
L 918.435021 90.742873 
L 938.814038 90.182825 
L 964.679714 89.706736 
L 998.383473 89.324185 
L 1037.573891 89.068055 
L 1037.573891 89.068055 
" style="fill:none;stroke:#1f77b4;stroke-linecap:square;stroke-width:1.5;"/>
   </g>
   <g id="line2d_33">
    <path clip-path="url(#p103751d5b0)" d="M 539.071777 390.194126 
L 1036.8 390.194126 
" style="fill:none;stroke:#ff7f0e;stroke-dasharray:5.55,2.4;stroke-dashoffset:0;stroke-width:1.5;"/>
   </g>
   <g id="line2d_34">
    <path clip-path="url(#p103751d5b0)" d="M 539.071777 187.849194 
L 1036.8 187.849194 
" style="fill:none;stroke:#2ca02c;stroke-dasharray:5.55,2.4;stroke-dashoffset:0;stroke-width:1.5;"/>
   </g>
   <g id="line2d_35">
    <path clip-path="url(#p103751d5b0)" d="M 539.071777 104.986452 
L 1036.8 104.986452 
" style="fill:none;stroke:#d62728;stroke-dasharray:5.55,2.4;stroke-dashoffset:0;stroke-width:1.5;"/>
   </g>
   <g id="line2d_36">
    <path clip-path="url(#p103751d5b0)" d="M 600.992637 104.986452 
L 606.479296 104.931993 
L 607.263104 104.816427 
L 608.046912 104.550981 
L 608.830721 104.068994 
L 610.398337 102.757613 
L 611.182146 102.50179 
L 611.965954 102.902866 
L 613.533571 104.737963 
L 614.317379 104.955625 
L 615.101187 104.330114 
L 615.884996 103.398299 
L 616.668804 102.978221 
L 617.452613 103.447972 
L 618.236421 104.392945 
L 619.020229 104.972346 
L 619.804038 104.67185 
L 621.371654 102.994359 
L 622.155463 103.030465 
L 623.723079 104.695718 
L 624.506888 104.973063 
L 625.290696 104.42647 
L 626.074504 103.454758 
L 626.858313 102.745184 
L 627.642121 102.773469 
L 628.42593 103.498281 
L 629.209738 104.427374 
L 629.993546 104.962605 
L 630.777355 104.771669 
L 631.561163 103.961058 
L 632.344971 102.9796 
L 633.12878 102.345692 
L 633.912588 102.370089 
L 634.696396 103.017338 
L 636.264013 104.726863 
L 637.047821 104.98336 
L 637.83163 104.608131 
L 640.183055 101.97301 
L 640.966863 101.687672 
L 641.750672 101.975051 
L 642.53448 102.717184 
L 644.102097 104.481346 
L 644.885905 104.940864 
L 645.669713 104.896808 
L 646.453522 104.35964 
L 649.588755 100.95861 
L 650.372563 100.803899 
L 651.156372 101.100668 
L 651.94018 101.769913 
L 654.291605 104.372898 
L 655.075414 104.864367 
L 655.859222 104.976502 
L 656.64303 104.689573 
L 657.426839 104.048982 
L 658.994455 102.13001 
L 660.562072 100.263893 
L 661.34588 99.656331 
L 662.129689 99.367412 
L 662.913497 99.420795 
L 663.697305 99.797968 
L 664.481114 100.444076 
L 666.048731 102.199817 
L 667.616347 103.912142 
L 668.400156 104.526308 
L 669.183964 104.893714 
L 669.967772 104.980662 
L 670.751581 104.779306 
L 671.535389 104.306148 
L 672.319197 103.598643 
L 673.886814 101.706157 
L 676.238239 98.685879 
L 677.022048 97.88702 
L 677.805856 97.27403 
L 678.589664 96.876905 
L 679.373473 96.711366 
L 680.157281 96.779089 
L 680.941089 97.068739 
L 681.724898 97.557626 
L 683.292514 98.998498 
L 687.211556 103.31378 
L 687.995365 103.966524 
L 688.779173 104.473021 
L 689.562981 104.813137 
L 690.34679 104.973859 
L 691.130598 104.949244 
L 691.914406 104.74009 
L 692.698215 104.353406 
L 693.482023 103.801692 
L 695.04964 102.27562 
L 696.617256 100.338782 
L 701.320107 94.132232 
L 702.887723 92.553031 
L 704.45534 91.43898 
L 705.239148 91.077582 
L 706.022957 90.851852 
L 706.806765 90.762145 
L 707.590573 90.806176 
L 708.374382 90.979253 
L 709.941998 91.683312 
L 711.509615 92.798924 
L 713.077232 94.230089 
L 715.428657 96.732045 
L 719.347699 100.948104 
L 720.915315 102.371 
L 722.482932 103.530069 
L 724.050549 104.372413 
L 725.618166 104.862156 
L 727.185782 104.979752 
L 728.753399 104.720638 
L 730.321016 104.093453 
L 731.888632 103.117988 
L 733.456249 101.823021 
L 735.023866 100.244167 
L 737.375291 97.432827 
L 739.726716 94.22121 
L 743.645758 88.382669 
L 749.132416 80.22631 
L 752.26765 76.036442 
L 754.619075 73.253976 
L 756.9705 70.831547 
L 759.321925 68.796211 
L 761.67335 67.159552 
L 763.240967 66.289678 
L 764.808583 65.593429 
L 766.3762 65.065899 
L 767.943817 64.700711 
L 770.295242 64.440518 
L 772.646667 64.499168 
L 774.998092 64.844483 
L 777.349517 65.442768 
L 779.700942 66.260018 
L 782.836176 67.632813 
L 785.971409 69.260659 
L 789.890451 71.550192 
L 796.160918 75.534885 
L 806.350426 82.058654 
L 811.837085 85.309889 
L 816.539935 87.868882 
L 821.242785 90.193434 
L 825.945635 92.276716 
L 830.648485 94.1228 
L 835.351335 95.743118 
L 840.054185 97.153694 
L 845.540844 98.559043 
L 851.027502 99.735064 
L 857.297969 100.837329 
L 863.568436 101.722392 
L 870.622711 102.505671 
L 879.244603 103.222277 
L 888.650303 103.77722 
L 900.407429 104.237538 
L 915.299788 104.581855 
L 935.678805 104.814314 
L 969.382564 104.945419 
L 1037.573891 104.98429 
L 1037.573891 104.98429 
" style="fill:none;stroke:#d62728;stroke-linecap:square;stroke-width:1.5;"/>
   </g>
   <g id="line2d_37">
    <path clip-path="url(#p103751d5b0)" d="M 600.992637 187.849194 
L 605.695487 187.803392 
L 606.479296 187.673421 
L 607.263104 187.299138 
L 608.046912 186.43654 
L 608.830721 184.863363 
L 610.398337 180.530466 
L 611.182146 179.635374 
L 611.965954 180.891541 
L 613.533571 186.952838 
L 614.317379 187.774423 
L 615.101187 185.7979 
L 615.884996 182.710463 
L 616.668804 181.206142 
L 617.452613 182.628941 
L 618.236421 185.731078 
L 619.020229 187.768034 
L 619.804038 186.942382 
L 621.371654 181.350074 
L 622.155463 181.266095 
L 622.939271 183.72494 
L 623.723079 186.703372 
L 624.506888 187.837404 
L 625.290696 186.242845 
L 626.074504 183.072957 
L 626.858313 180.554365 
L 627.642121 180.368425 
L 628.42593 182.565774 
L 629.209738 185.658319 
L 629.993546 187.66916 
L 630.777355 187.362128 
L 631.561163 184.898162 
L 632.344971 181.628344 
L 633.12878 179.26554 
L 633.912588 178.96607 
L 634.696396 180.802244 
L 636.264013 186.585976 
L 637.047821 187.835948 
L 637.83163 187.026815 
L 638.615438 184.477921 
L 640.183055 178.312159 
L 640.966863 176.885299 
L 641.750672 177.318372 
L 642.53448 179.39783 
L 644.102097 185.343734 
L 644.885905 187.340875 
L 645.669713 187.805929 
L 646.453522 186.605466 
L 647.23733 184.047068 
L 648.804947 177.513109 
L 649.588755 175.020811 
L 650.372563 173.789722 
L 651.156372 174.028271 
L 651.94018 175.631688 
L 652.723989 178.232166 
L 654.291605 184.226696 
L 655.075414 186.49638 
L 655.859222 187.709292 
L 656.64303 187.664044 
L 657.426839 186.365198 
L 658.210647 184.003478 
L 659.778264 177.500814 
L 660.562072 174.205659 
L 661.34588 171.418314 
L 662.129689 169.447192 
L 662.913497 168.486892 
L 663.697305 168.606132 
L 664.481114 169.751607 
L 665.264922 171.764815 
L 666.832539 177.394818 
L 668.400156 183.20045 
L 669.183964 185.476069 
L 669.967772 187.051911 
L 670.751581 187.797467 
L 671.535389 187.653404 
L 672.319197 186.62971 
L 673.103006 184.798724 
L 673.886814 182.2844 
L 675.454431 175.879779 
L 677.805856 165.710503 
L 678.589664 162.891356 
L 679.373473 160.59304 
L 680.157281 158.908763 
L 680.941089 157.896066 
L 681.724898 157.577129 
L 682.508706 157.940854 
L 683.292514 158.946333 
L 684.076323 160.527318 
L 684.860131 162.597324 
L 686.427748 167.789638 
L 689.562981 179.224574 
L 691.130598 183.803456 
L 691.914406 185.523634 
L 692.698215 186.792421 
L 693.482023 187.574457 
L 694.265831 187.848907 
L 695.04964 187.608698 
L 695.833448 186.859447 
L 696.617256 185.618144 
L 697.401065 183.911671 
L 698.184873 181.775236 
L 699.75249 176.385326 
L 701.320107 169.836434 
L 703.671532 158.767508 
L 706.806765 143.800515 
L 708.374382 136.989083 
L 709.941998 130.95864 
L 711.509615 125.871835 
L 713.077232 121.825318 
L 713.86104 120.206067 
L 714.644849 118.85701 
L 715.428657 117.77523 
L 716.212465 116.955349 
L 716.996274 116.389843 
L 717.780082 116.069356 
L 718.56389 115.982998 
L 719.347699 116.118631 
L 720.131507 116.463134 
L 720.915315 117.002656 
L 721.699124 117.722839 
L 723.266741 119.646444 
L 724.834357 122.116286 
L 726.401974 125.017626 
L 728.753399 129.944542 
L 732.672441 138.920165 
L 737.375291 149.609 
L 740.510524 156.119137 
L 742.861949 160.538993 
L 745.213374 164.523213 
L 747.5648 168.064637 
L 749.916225 171.174492 
L 752.26765 173.876565 
L 754.619075 176.202499 
L 756.9705 178.188128 
L 759.321925 179.870747 
L 761.67335 181.287161 
L 764.024775 182.472373 
L 767.160008 183.748543 
L 770.295242 184.739125 
L 773.430475 185.502191 
L 777.349517 186.208784 
L 782.052367 186.790617 
L 787.539026 187.220357 
L 794.593301 187.531467 
L 804.782809 187.73313 
L 823.59421 187.831947 
L 898.839812 187.849188 
L 1037.573891 187.849194 
L 1037.573891 187.849194 
" style="fill:none;stroke:#2ca02c;stroke-linecap:square;stroke-width:1.5;"/>
   </g>
   <g id="line2d_38">
    <path clip-path="url(#p103751d5b0)" d="M 600.992637 390.194125 
L 605.695487 390.104014 
L 606.479296 389.84659 
L 607.263104 389.100361 
L 608.046912 387.366467 
L 608.830721 384.170377 
L 610.398337 375.106044 
L 611.182146 372.98406 
L 611.965954 375.260876 
L 613.533571 387.905411 
L 614.317379 390.139738 
L 615.101187 386.482842 
L 615.884996 380.015832 
L 616.668804 376.297893 
L 617.452613 378.593911 
L 618.236421 384.923207 
L 619.020229 389.763964 
L 619.804038 388.906366 
L 621.371654 377.113657 
L 622.155463 375.905948 
L 622.939271 380.306499 
L 623.723079 386.729031 
L 624.506888 390.151977 
L 625.290696 387.966962 
L 626.858313 375.708482 
L 627.642121 373.909482 
L 628.42593 377.342935 
L 629.209738 383.682886 
L 629.993546 388.942628 
L 630.777355 389.959963 
L 631.561163 386.121223 
L 633.12878 373.433457 
L 633.912588 370.911376 
L 634.696396 372.974612 
L 635.480205 378.502769 
L 636.264013 384.893799 
L 637.047821 389.31958 
L 637.83163 389.913297 
L 638.615438 386.417332 
L 640.966863 368.151197 
L 641.750672 366.341276 
L 642.53448 368.278594 
L 643.318288 373.225494 
L 644.885905 385.53199 
L 645.669713 389.350877 
L 646.453522 390.047835 
L 647.23733 387.437879 
L 648.021138 382.127154 
L 649.588755 368.378911 
L 650.372563 362.743843 
L 651.156372 359.416276 
L 651.94018 358.918537 
L 652.723989 361.222867 
L 653.507797 365.81171 
L 655.859222 383.893821 
L 656.64303 388.053394 
L 657.426839 390.061107 
L 658.210647 389.637343 
L 658.994455 386.832708 
L 659.778264 381.987807 
L 661.34588 368.546763 
L 662.913497 354.832163 
L 663.697305 349.50573 
L 664.481114 345.822737 
L 665.264922 344.033885 
L 666.048731 344.207909 
L 666.832539 346.24475 
L 667.616347 349.901609 
L 668.400156 354.827287 
L 672.319197 383.311588 
L 673.103006 386.982951 
L 673.886814 389.317546 
L 674.670622 390.189442 
L 675.454431 389.553627 
L 676.238239 387.439085 
L 677.022048 383.938822 
L 677.805856 379.197954 
L 678.589664 373.400924 
L 680.157281 359.49657 
L 684.076323 321.537527 
L 685.643939 308.949445 
L 686.427748 303.711475 
L 687.211556 299.263659 
L 687.995365 295.639265 
L 688.779173 292.849207 
L 689.562981 290.884752 
L 690.34679 289.720413 
L 691.130598 289.316904 
L 691.914406 289.624033 
L 692.698215 290.583446 
L 693.482023 292.131154 
L 694.265831 294.199814 
L 695.04964 296.720712 
L 696.617256 302.847468 
L 698.184873 309.991891 
L 706.022957 347.545145 
L 707.590573 353.803557 
L 709.15819 359.410497 
L 710.725807 364.358965 
L 712.293424 368.669344 
L 713.86104 372.380619 
L 715.428657 375.543201 
L 716.996274 378.21333 
L 718.56389 380.448888 
L 720.131507 382.306438 
L 721.699124 383.83925 
L 723.266741 385.09611 
L 724.834357 386.120729 
L 726.401974 386.951563 
L 728.753399 387.906058 
L 731.104824 388.591063 
L 734.240057 389.206501 
L 737.375291 389.591824 
L 742.078141 389.911996 
L 749.132416 390.106444 
L 762.457158 390.18519 
L 844.757036 390.194126 
L 1037.573891 390.194126 
L 1037.573891 390.194126 
" style="fill:none;stroke:#ff7f0e;stroke-linecap:square;stroke-width:1.5;"/>
   </g>
   <g id="patch_13">
    <path d="M 601.287805 441 
L 601.287805 60.48 
" style="fill:none;stroke:#000000;stroke-linecap:square;stroke-linejoin:miter;stroke-width:0.8;"/>
   </g>
   <g id="patch_14">
    <path d="M 1036.8 441 
L 1036.8 60.48 
" style="fill:none;stroke:#000000;stroke-linecap:square;stroke-linejoin:miter;stroke-width:0.8;"/>
   </g>
   <g id="patch_15">
    <path d="M 601.287805 441 
L 1036.8 441 
" style="fill:none;stroke:#000000;stroke-linecap:square;stroke-linejoin:miter;stroke-width:0.8;"/>
   </g>
   <g id="patch_16">
    <path d="M 601.287805 60.48 
L 1036.8 60.48 
" style="fill:none;stroke:#000000;stroke-linecap:square;stroke-linejoin:miter;stroke-width:0.8;"/>
   </g>
   <g id="legend_1">
    <g id="patch_17">
     <path d="M 799.2 432 
L 1024.2 432 
Q 1027.8 432 1027.8 428.4 
L 1027.8 283.632187 
Q 1027.8 280.032188 1024.2 280.032188 
L 799.2 280.032188 
Q 795.6 280.032188 795.6 283.632187 
L 795.6 428.4 
Q 795.6 432 799.2 432 
z
" style="fill:#ffffff;stroke:#cccccc;stroke-linejoin:miter;"/>
    </g>
    <g id="line2d_39">
     <path d="M 802.8 307.66275 
L 838.8 307.66275 
" style="fill:none;stroke:#d62728;stroke-linecap:square;stroke-width:1.5;"/>
    </g>
    <g id="line2d_40"/>
    <g id="text_33">
     <!-- $\nu=-2,$ -->
     <defs>
      <path d="M 14.984375 0 
L 8.9375 54.6875 
L 18.609375 54.6875 
L 23.78125 8.796875 
Q 30.8125 14.84375 37.359375 23.25 
Q 42.28125 29.546875 43.5625 35.015625 
Q 44.140625 37.59375 43.890625 42.484375 
Q 43.65625 48.296875 39.75 54.6875 
L 48.828125 54.6875 
L 48.828125 54.6875 
Q 51.375 50.34375 52.390625 44.28125 
Q 53.375 38.71875 52.640625 34.90625 
Q 50.78125 25.34375 42.484375 16.796875 
Q 31.640625 5.671875 24.5625 0 
z
" id="DejaVuSans-Oblique-957"/>
      <path d="M 10.59375 45.40625 
L 73.1875 45.40625 
L 73.1875 37.203125 
L 10.59375 37.203125 
z
M 10.59375 25.484375 
L 73.1875 25.484375 
L 73.1875 17.1875 
L 10.59375 17.1875 
z
" id="DejaVuSans-61"/>
     </defs>
     <g transform="translate(853.2 301.27725)scale(0.18 -0.18)">
      <use transform="translate(0 0.78125)" xlink:href="#DejaVuSans-Oblique-957"/>
      <use transform="translate(75.341797 0.78125)" xlink:href="#DejaVuSans-61"/>
      <use transform="translate(198.095703 0.78125)" xlink:href="#DejaVuSans-8722"/>
      <use transform="translate(301.367188 0.78125)" xlink:href="#DejaVuSans-50"/>
      <use transform="translate(364.990234 0.78125)" xlink:href="#DejaVuSans-44"/>
     </g>
     <!-- E$_{-2}= -1.2$ cm$^{-1}$ -->
     <g transform="translate(853.2 323.640562)scale(0.18 -0.18)">
      <use transform="translate(0 0.684375)" xlink:href="#DejaVuSans-69"/>
      <use transform="translate(64.140625 -15.721875)scale(0.7)" xlink:href="#DejaVuSans-8722"/>
      <use transform="translate(122.792969 -15.721875)scale(0.7)" xlink:href="#DejaVuSans-50"/>
      <use transform="translate(189.545898 0.684375)" xlink:href="#DejaVuSans-61"/>
      <use transform="translate(312.299805 0.684375)" xlink:href="#DejaVuSans-8722"/>
      <use transform="translate(415.571289 0.684375)" xlink:href="#DejaVuSans-49"/>
      <use transform="translate(479.194336 0.684375)" xlink:href="#DejaVuSans-46"/>
      <use transform="translate(510.90332 0.684375)" xlink:href="#DejaVuSans-50"/>
      <use transform="translate(574.526367 0.684375)" xlink:href="#DejaVuSans-32"/>
      <use transform="translate(606.313477 0.684375)" xlink:href="#DejaVuSans-99"/>
      <use transform="translate(661.293945 0.684375)" xlink:href="#DejaVuSans-109"/>
      <use transform="translate(759.663086 38.965625)scale(0.7)" xlink:href="#DejaVuSans-8722"/>
      <use transform="translate(818.31543 38.965625)scale(0.7)" xlink:href="#DejaVuSans-49"/>
     </g>
    </g>
    <g id="line2d_41">
     <path d="M 802.8 356.554688 
L 838.8 356.554688 
" style="fill:none;stroke:#2ca02c;stroke-linecap:square;stroke-width:1.5;"/>
    </g>
    <g id="line2d_42"/>
    <g id="text_34">
     <!-- $\nu=-3,$ -->
     <defs>
      <path d="M 40.578125 39.3125 
Q 47.65625 37.796875 51.625 33 
Q 55.609375 28.21875 55.609375 21.1875 
Q 55.609375 10.40625 48.1875 4.484375 
Q 40.765625 -1.421875 27.09375 -1.421875 
Q 22.515625 -1.421875 17.65625 -0.515625 
Q 12.796875 0.390625 7.625 2.203125 
L 7.625 11.71875 
Q 11.71875 9.328125 16.59375 8.109375 
Q 21.484375 6.890625 26.8125 6.890625 
Q 36.078125 6.890625 40.9375 10.546875 
Q 45.796875 14.203125 45.796875 21.1875 
Q 45.796875 27.640625 41.28125 31.265625 
Q 36.765625 34.90625 28.71875 34.90625 
L 20.21875 34.90625 
L 20.21875 43.015625 
L 29.109375 43.015625 
Q 36.375 43.015625 40.234375 45.921875 
Q 44.09375 48.828125 44.09375 54.296875 
Q 44.09375 59.90625 40.109375 62.90625 
Q 36.140625 65.921875 28.71875 65.921875 
Q 24.65625 65.921875 20.015625 65.03125 
Q 15.375 64.15625 9.8125 62.3125 
L 9.8125 71.09375 
Q 15.4375 72.65625 20.34375 73.4375 
Q 25.25 74.21875 29.59375 74.21875 
Q 40.828125 74.21875 47.359375 69.109375 
Q 53.90625 64.015625 53.90625 55.328125 
Q 53.90625 49.265625 50.4375 45.09375 
Q 46.96875 40.921875 40.578125 39.3125 
z
" id="DejaVuSans-51"/>
     </defs>
     <g transform="translate(853.2 350.097188)scale(0.18 -0.18)">
      <use transform="translate(0 0.78125)" xlink:href="#DejaVuSans-Oblique-957"/>
      <use transform="translate(75.341797 0.78125)" xlink:href="#DejaVuSans-61"/>
      <use transform="translate(198.095703 0.78125)" xlink:href="#DejaVuSans-8722"/>
      <use transform="translate(301.367188 0.78125)" xlink:href="#DejaVuSans-51"/>
      <use transform="translate(364.990234 0.78125)" xlink:href="#DejaVuSans-44"/>
     </g>
     <!-- E$_{-3}= -7.0$ cm$^{-1}$ -->
     <defs>
      <path d="M 8.203125 72.90625 
L 55.078125 72.90625 
L 55.078125 68.703125 
L 28.609375 0 
L 18.3125 0 
L 43.21875 64.59375 
L 8.203125 64.59375 
z
" id="DejaVuSans-55"/>
     </defs>
     <g transform="translate(853.2 372.6765)scale(0.18 -0.18)">
      <use transform="translate(0 0.684375)" xlink:href="#DejaVuSans-69"/>
      <use transform="translate(64.140625 -15.721875)scale(0.7)" xlink:href="#DejaVuSans-8722"/>
      <use transform="translate(122.792969 -15.721875)scale(0.7)" xlink:href="#DejaVuSans-51"/>
      <use transform="translate(189.545898 0.684375)" xlink:href="#DejaVuSans-61"/>
      <use transform="translate(312.299805 0.684375)" xlink:href="#DejaVuSans-8722"/>
      <use transform="translate(415.571289 0.684375)" xlink:href="#DejaVuSans-55"/>
      <use transform="translate(479.194336 0.684375)" xlink:href="#DejaVuSans-46"/>
      <use transform="translate(510.981445 0.684375)" xlink:href="#DejaVuSans-48"/>
      <use transform="translate(574.604492 0.684375)" xlink:href="#DejaVuSans-32"/>
      <use transform="translate(606.391602 0.684375)" xlink:href="#DejaVuSans-99"/>
      <use transform="translate(661.37207 0.684375)" xlink:href="#DejaVuSans-109"/>
      <use transform="translate(759.741211 38.965625)scale(0.7)" xlink:href="#DejaVuSans-8722"/>
      <use transform="translate(818.393555 38.965625)scale(0.7)" xlink:href="#DejaVuSans-49"/>
     </g>
    </g>
    <g id="line2d_43">
     <path d="M 802.8 405.446625 
L 838.8 405.446625 
" style="fill:none;stroke:#ff7f0e;stroke-linecap:square;stroke-width:1.5;"/>
    </g>
    <g id="line2d_44"/>
    <g id="text_35">
     <!-- $\nu=-4$ -->
     <g transform="translate(853.2 399.061125)scale(0.18 -0.18)">
      <use transform="translate(0 0.09375)" xlink:href="#DejaVuSans-Oblique-957"/>
      <use transform="translate(75.341797 0.09375)" xlink:href="#DejaVuSans-61"/>
      <use transform="translate(198.095703 0.09375)" xlink:href="#DejaVuSans-8722"/>
      <use transform="translate(301.367188 0.09375)" xlink:href="#DejaVuSans-52"/>
     </g>
     <!-- E$_{-4}= -21.4$ cm$^{-1}$ -->
     <g transform="translate(853.2 421.424438)scale(0.18 -0.18)">
      <use transform="translate(0 0.684375)" xlink:href="#DejaVuSans-69"/>
      <use transform="translate(64.140625 -15.721875)scale(0.7)" xlink:href="#DejaVuSans-8722"/>
      <use transform="translate(122.792969 -15.721875)scale(0.7)" xlink:href="#DejaVuSans-52"/>
      <use transform="translate(189.545898 0.684375)" xlink:href="#DejaVuSans-61"/>
      <use transform="translate(312.299805 0.684375)" xlink:href="#DejaVuSans-8722"/>
      <use transform="translate(415.571289 0.684375)" xlink:href="#DejaVuSans-50"/>
      <use transform="translate(479.194336 0.684375)" xlink:href="#DejaVuSans-49"/>
      <use transform="translate(542.817383 0.684375)" xlink:href="#DejaVuSans-46"/>
      <use transform="translate(574.604492 0.684375)" xlink:href="#DejaVuSans-52"/>
      <use transform="translate(638.227539 0.684375)" xlink:href="#DejaVuSans-32"/>
      <use transform="translate(670.014648 0.684375)" xlink:href="#DejaVuSans-99"/>
      <use transform="translate(724.995117 0.684375)" xlink:href="#DejaVuSans-109"/>
      <use transform="translate(823.364258 38.965625)scale(0.7)" xlink:href="#DejaVuSans-8722"/>
      <use transform="translate(882.016602 38.965625)scale(0.7)" xlink:href="#DejaVuSans-49"/>
     </g>
    </g>
   </g>
  </g>
 </g>
 <defs>
  <clipPath id="p83728a1363">
   <rect height="380.52" width="435.512195" x="144" y="60.48"/>
  </clipPath>
  <clipPath id="p103751d5b0">
   <rect height="380.52" width="435.512195" x="601.287805" y="60.48"/>
  </clipPath>
 </defs>
</svg>
